<svg viewBox="0 0 687 152" version="1.1" xmlns="http://www.w3.org/2000/svg" xmlns:xlink="http://www.w3.org/1999/xlink">
	<title>VinSpee Logo</title>
  <defs></defs>
  <g>
    <path d="M255,71 L283,35 L274,28 L255,53 L236,28 L227,35 L255,71 L255,71 Z M289,30 L301,30 L301,68 L289,68 L289,30 L289,30 Z M311,69 L323,69 L323,50 L357,71 L357,30 L345,30 L345,49 L311,28 L311,69 L311,69 Z M407,56 C403.264604,58.2126264 398.360203,59.4936868 393,59 C384.924001,59.4936868 377.772002,55.7526264 378,50 C377.772002,43.2473736 384.924001,39.5063132 393,40 C398.360203,39.5063132 403.264604,40.7873736 407,43 L412,34 C407.0956,30.6905549 400.709599,29 393,29 C376.493996,29 365,37.8147472 365,50 C365,61.1852528 376.493996,70 393,70 C400.709599,70 407.0956,68.308434 412,65 L407,56 L407,56 Z M461,58 L431,58 L431,54 L455,54 L455,44 L431,44 L431,40 L461,40 L461,30 L419,30 L419,68 L461,68 L461,58 L461,58 Z M229,118 C234.149184,120.232626 241.670778,123 253,123 C266.509366,123 276,118.592626 276,110 C276,99.8863132 264.288345,97.7852528 249,97 C244.901716,96.6578792 242.529307,96.2989396 243,95 C242.529307,92.8652528 247.224327,92.2494945 252,92 C258.78559,92.2494945 264.99449,93.5821208 269,95 L273,86 C268.023246,83.691566 260.905022,82 253,82 C240.913838,82 230.413287,85.6389396 230,95 C230.413287,103.884192 238.439839,106.855808 256,108 C260.501653,108.291566 263.88398,108.547374 264,110 C263.88398,112.134747 258.532613,112.750506 254,113 C245.103899,112.750506 238.339246,110.751566 233,108 L229,118 L229,118 Z M304,102 C300.778254,102 298.19077,101.897682 296,102 L296,93 C298.19077,93.1013152 300.778254,93 304,93 C314.665238,93 318,95.2881186 318,97 C318,99.6607222 314.665238,102 304,102 L304,102 Z M305,111 C323.184077,111.287478 331,105.298933 331,97 C331,88.8939745 324.192904,82 303,82 C297.111767,82 289.698779,82.3018099 284,83 L284,121 L296,121 L296,111 C298.725493,111.187206 301.650494,111.287478 305,111 L305,111 Z M380,112 L350,112 L350,108 L374,108 L374,98 L350,98 L350,94 L380,94 L380,84 L338,84 L338,122 L380,122 L380,112 L380,112 Z M431,112 L401,112 L401,108 L425,108 L425,98 L401,98 L401,94 L431,94 L431,84 L389,84 L389,122 L431,122 L431,112 L431,112 Z M440,122 L481,122 L481,112 L452,112 L452,84 L440,84 L440,122 L440,122 Z M487,121 L499,121 L499,103 L514,113 L529,103 L529,121 L541,121 L541,81 L514,99 L487,81 L487,121 L487,121 Z M594,124 L603,117 L575,81 L547,117 L556,124 L562,117 L588,117 L594,124 L594,124 Z M581,106 L568,106 L575,98 L581,106 L581,106 Z M609,122 L621,122 L621,103 L655,124 L655,83 L643,83 L643,102 L609,81 L609,122 L609,122 Z" id="Name"></path>
    <g id="V" transform="translate(31.000000, 28.000000)" fill-opacity="0.75">
      <path d="M1,0 L1,95 L127,95 L1,0 L1,0 Z" id="\"></path>
      <path d="M127,0 L127,95 L1,95 L127,0 L127,0 Z" id="/"></path>
    </g>
  </g>
</svg>
