<?xml version="1.0" standalone="no"?>
<!DOCTYPE svg PUBLIC "-//W3C//DTD SVG 1.1//EN" "http://www.w3.org/Graphics/SVG/1.1/DTD/svg11.dtd">
<svg width="100%" height="100%" viewBox="0 0 194 194" version="1.1" xmlns="http://www.w3.org/2000/svg" xmlns:xlink="http://www.w3.org/1999/xlink" xml:space="preserve" style="fill-rule:evenodd;clip-rule:evenodd;stroke-linejoin:round;stroke-miterlimit:1.41421;">
    <g>
        <g transform="matrix(0.959328,0,0,0.959328,4.05482,3.75975)">
            <path d="M119.546,49.536C116.457,46.523 112.904,44.129 109.003,42.43C104.91,40.654 100.585,39.804 96.028,39.804C91.47,39.804 87.184,40.654 83.09,42.43C79.151,44.129 75.598,46.523 72.509,49.536C69.419,52.625 67.063,56.178 65.326,60.117C63.665,64.249 62.815,68.575 62.815,73.054C62.815,77.612 63.665,81.937 65.326,85.992C67.063,90.008 69.419,93.6 72.509,96.573C75.598,99.663 79.151,102.058 83.09,103.757C87.184,105.533 91.47,106.383 96.028,106.383C100.585,106.383 104.91,105.533 109.003,103.757C112.904,102.058 116.457,99.663 119.546,96.573C122.636,93.6 125.03,90.008 126.653,85.992C128.429,81.937 129.278,77.612 129.278,73.054C129.278,68.575 128.429,64.249 126.653,60.117C125.03,56.178 122.636,52.625 119.546,49.536Z" style="fill:rgb(211,198,106);"/>
            <path d="M122.482,61.933C121.014,58.495 119.006,55.483 116.302,52.78C113.676,50.153 110.703,48.146 107.227,46.678C103.674,45.133 99.966,44.361 96.028,44.361C92.088,44.361 88.419,45.133 84.866,46.678C81.391,48.146 78.379,50.153 75.753,52.78C73.049,55.483 71.041,58.495 69.573,61.933C68.145,65.485 67.372,69.193 67.372,73.054C67.372,76.994 68.145,80.701 69.573,84.254C71.041,87.691 73.049,90.703 75.753,93.407C78.379,96.033 81.391,98.041 84.866,99.509C88.419,101.054 92.088,101.825 96.028,101.825C99.966,101.825 103.674,101.054 107.227,99.509C110.703,98.041 113.676,96.033 116.302,93.407C119.006,90.703 121.014,87.691 122.482,84.254C123.949,80.701 124.722,76.994 124.722,73.054C124.722,69.193 123.949,65.485 122.482,61.933Z" style="fill:rgb(236,25,45);"/>
            <path d="M114.526,55.715L113.213,54.015L112.904,53.243L112.749,52.78L111.359,52.548C110.547,52.78 109.389,53.861 107.999,55.869C106.068,58.65 104.446,60.658 102.979,61.933C101.975,62.782 100.816,63.323 99.657,63.478C99.348,63.478 99.117,63.4 98.885,63.245C98.499,63.014 98.268,62.319 98.268,61.237L100.352,58.881L100.893,56.951C100.893,56.564 100.507,56.41 99.813,56.487L98.113,56.796L96.955,57.182L96.568,56.719L95.641,55.869C94.946,55.328 94.406,55.406 94.174,56.178L94.02,57.723C91.779,58.804 90.698,59.654 90.698,60.272C90.698,60.735 90.93,61.121 91.316,61.315L93.633,62.087L93.479,63.323L92.552,63.4C91.239,63.245 90.08,62.782 89.192,61.933C87.879,60.812 86.18,58.804 84.171,55.869C83.167,54.402 82.009,53.243 80.773,52.548L80.233,52.316L79.537,52.393L79.151,52.857L79.151,53.475L78.687,54.17L77.529,55.715L74.98,59.113L72.818,63.245C71.813,65.408 71.195,67.957 70.964,70.815C70.732,73.595 70.886,76.221 71.427,78.77C72.354,82.787 74.053,86.262 76.525,89.236L77.684,90.549L78.07,90.936L78.533,90.896C78.687,90.626 78.533,90.394 78.147,90.008L77.374,89.004C76.448,87.691 75.675,86.262 75.058,84.756C73.59,81.01 73.435,78.925 74.439,78.539C75.135,78.23 75.984,78.925 76.988,80.546L77.684,81.783C77.915,82.478 78.224,82.709 78.456,82.555C78.687,82.478 78.687,82.246 78.61,82.014L78.147,81.319L77.529,79.774L76.679,76.839C76.216,74.368 76.448,72.9 77.297,72.36C78.147,71.819 79.228,72.282 80.464,73.827L81.468,75.372L82.24,77.38C82.318,77.92 82.472,78.152 82.704,78.152C83.09,78.075 83.09,77.766 82.859,77.226L82.704,75.681L82.859,74.213C83.09,73.673 83.399,73.287 83.785,73.132C84.635,72.9 85.407,73.287 86.102,74.291C86.952,75.449 87.338,76.994 87.261,78.925L86.72,79.697C85.639,80.161 85.098,80.701 85.175,81.319C85.253,82.092 85.484,82.709 85.948,83.095C88.188,82.014 89.848,81.86 91.007,82.555C91.934,83.095 92.86,84.834 93.787,87.691C94.714,90.549 95.332,93.484 95.564,96.573L95.641,97.578L95.718,98.582C95.641,98.968 95.796,99.122 96.028,99.122C96.337,99.122 96.491,98.968 96.413,98.582L96.568,96.573C96.8,93.407 97.418,90.511 98.268,87.807C99.117,84.988 100.044,83.327 100.971,82.632C102.052,81.86 103.751,82.014 105.991,83.018C106.609,82.709 106.918,82.169 106.995,81.319C106.995,80.624 106.455,80.083 105.373,79.697C105.064,79.543 104.91,79.233 104.833,78.848C104.833,76.917 105.219,75.449 105.991,74.291C106.686,73.209 107.458,72.823 108.308,73.054C108.695,73.209 109.003,73.595 109.196,74.136L109.467,75.681L109.196,77.226C109.003,77.766 109.081,77.997 109.389,78.075C109.582,78.152 109.775,77.92 109.853,77.38L110.703,75.294L111.668,73.827C112.904,72.282 113.908,71.742 114.757,72.282C115.607,72.823 115.839,74.368 115.453,76.839L114.603,79.774L113.908,81.242L113.522,81.937C113.444,82.246 113.444,82.401 113.599,82.478C113.83,82.632 114.14,82.401 114.372,81.783L115.144,80.546C116.147,78.848 116.998,78.152 117.693,78.461C118.697,78.925 118.465,81.01 116.998,84.679C116.457,86.262 115.685,87.691 114.757,89.004L113.908,90.008C113.522,90.318 113.444,90.549 113.599,90.781L113.985,90.896L114.372,90.511L115.53,89.159C118.079,86.146 119.778,82.709 120.628,78.77C121.168,76.221 121.4,73.595 121.168,70.815C120.936,67.957 120.241,65.408 119.237,63.245L117.075,59.113L114.526,55.715Z" style="fill:black;"/>
            <path d="M96.029,87.888C96.109,84.889 96.649,82.081 97.727,79.311L99.194,75.835L100.43,72.05C101.511,68.266 100.971,65.717 98.808,64.404C98.422,64.172 98.654,64.172 99.426,64.327L101.898,65.176L104.137,65.64C104.678,65.563 105.064,65.331 105.373,64.944L106.3,63.4L107.381,60.272C108.231,57.723 109.313,55.792 110.471,54.556L111.436,53.629C111.668,53.398 111.9,53.398 111.977,53.629L112.054,53.938L112.285,54.479L113.83,56.487L115.993,59.885C117.538,63.014 118.388,66.026 118.465,68.884C118.542,72.36 118.001,75.063 116.92,76.917L116.843,76.839C117.538,74.522 117.848,71.973 117.615,69.115C117.384,67.108 116.92,65.022 116.071,62.782L113.753,58.032C114.14,59.885 114.14,62.087 113.908,64.79C113.522,68.112 112.749,70.815 111.436,72.9L111.359,72.9C112.285,70.429 112.827,67.57 112.904,64.404C112.981,61.7 112.827,59.422 112.44,57.491L111.745,55.638L111.127,55.097L110.471,55.869L109.582,57.414C109.081,58.727 108.695,60.503 108.308,62.55L107.381,66.644C106.918,67.957 106.378,68.884 105.759,69.424C105.373,69.811 104.91,69.965 104.446,69.888C103.982,69.811 103.596,69.656 103.21,69.27C102.824,68.884 102.361,68.189 101.898,67.108L102.207,69.193C102.207,70.661 101.82,72.205 101.125,73.673L100.199,75.526L101.203,75.063L102.052,74.754C102.592,74.677 103.056,75.063 103.365,75.913L103.906,79.852C103.906,80.161 104.06,80.392 104.369,80.47C105.682,80.778 106.145,81.242 105.837,81.783L102.979,81.165C103.056,80.546 102.824,79.929 102.284,79.311C101.589,78.616 100.893,78.461 100.044,78.77C98.962,79.233 98.036,80.701 97.34,83.25C96.723,85.297 96.337,87.691 96.259,90.394L96.028,94.489L95.873,90.394C95.718,87.691 95.332,85.297 94.714,83.25C94.02,80.701 93.092,79.233 92.011,78.77C91.162,78.461 90.466,78.616 89.848,79.311C89.347,79.929 89.038,80.546 89.115,81.165L86.257,81.86C86.025,81.165 86.566,80.701 87.802,80.47C88.033,80.392 88.188,80.161 88.265,79.852C88.265,78.23 88.419,76.917 88.806,75.913C89.038,75.063 89.501,74.677 90.08,74.754L90.775,74.908L92.166,75.604L90.775,73.054C90.312,71.973 90.003,70.969 89.926,70.12C89.848,69.27 90.003,68.343 90.234,67.184C89.926,68.034 89.424,68.729 88.651,69.27C87.802,69.811 87.107,69.965 86.411,69.656C85.716,69.347 85.098,68.498 84.712,67.108L83.785,62.55C83.554,60.812 83.167,59.036 82.472,57.414L81.7,55.869L80.927,55.097L80.309,55.638L79.692,57.491C79.228,59.422 79.074,61.7 79.151,64.404C79.305,67.57 79.846,70.429 80.696,72.9L80.618,72.9C79.305,70.815 78.533,68.112 78.147,64.79C77.915,62.087 77.915,59.885 78.301,58.032L75.984,62.782C75.135,65.022 74.671,67.108 74.517,69.115C74.285,71.973 74.517,74.522 75.212,76.839L75.135,76.917C74.053,74.986 73.59,72.36 73.667,68.884C73.744,65.872 74.517,62.782 76.139,59.654L78.379,56.255L79.769,54.479L80.078,53.938L80.078,53.629L80.696,53.629L81.622,54.556C82.935,55.947 84.094,57.954 84.944,60.503L85.871,63.478L86.72,64.944C87.03,65.331 87.493,65.64 88.033,65.717C88.728,65.794 89.501,65.64 90.234,65.176C91.239,64.636 92.32,64.249 93.479,64.172L94.096,64.095L94.483,63.864L94.56,62.782L94.792,63.168L94.946,64.249L94.56,64.559L93.324,65.022C92.629,65.408 92.088,66.026 91.779,66.721C91.239,68.112 91.239,69.811 91.625,71.819L92.552,74.522L93.479,76.917L91.393,75.99L90.158,75.99C89.617,76.298 89.347,77.457 89.115,79.388C89.501,78.461 90.158,77.92 91.007,77.689C91.857,77.457 92.706,77.612 93.401,78.152C94.174,78.848 94.869,80.392 95.41,82.864C95.796,84.756 96.028,86.456 96.028,87.923L96.029,87.888ZM95.41,58.881L94.946,59.577C94.869,59.731 95.024,59.808 95.255,59.885L96.183,59.963C96.568,59.963 96.723,59.885 96.8,59.731L96.568,59.113L95.41,58.881ZM97.882,58.65L98.036,59.422L98.499,58.881L98.654,58.341L98.19,58.418L97.882,58.65Z" style="fill:rgb(211,198,106);"/>
        </g>
        <g transform="matrix(0.959328,0,0,0.959328,4.05482,3.75975)">
            <path d="M189.563,141.449C189.177,141.063 188.636,140.83 188.095,140.83C187.477,140.83 186.936,141.063 186.55,141.449C186.164,141.874 185.933,142.376 185.933,142.994C185.933,143.534 186.164,144.075 186.55,144.461C187.014,144.847 187.554,145.079 188.095,145.079C188.636,145.079 189.177,144.847 189.563,144.461C189.948,144.075 190.181,143.534 190.181,142.994C190.181,142.376 189.948,141.874 189.563,141.449ZM84.635,125.19L84.171,125.19C83.785,122.796 82.704,120.865 80.927,119.32C79.151,117.853 77.143,117.158 74.748,117.274C71.736,117.312 69.342,118.702 67.642,121.405C66.059,123.954 65.326,127.121 65.441,130.983C65.518,134.497 66.484,137.432 68.261,139.672C69.96,141.757 72.122,142.916 74.671,142.994C76.834,143.148 78.842,142.762 80.618,141.874C82.549,140.83 84.171,139.286 85.484,137.355L85.871,137.587L85.253,138.822C84.481,140.291 83.322,141.603 81.7,142.608C79.614,143.998 77.143,144.77 74.285,144.847C70.191,145.001 66.832,143.921 64.128,141.526C61.27,139.054 59.88,135.578 59.803,131.176C59.726,126.658 61.039,122.95 63.78,120.092C65.132,118.818 66.6,117.775 68.222,117.08C69.805,116.308 71.505,115.922 73.281,115.844C76.139,115.613 78.997,115.999 81.777,117.08L83.476,117.274L84.481,116.617L84.712,116.694C84.558,118.046 84.558,120.788 84.635,125.19ZM188.095,141.139C188.558,141.139 188.944,141.294 189.331,141.68C189.716,142.067 189.871,142.453 189.871,142.994C189.871,143.534 189.716,143.921 189.331,144.229C188.944,144.615 188.558,144.77 188.095,144.77C187.554,144.77 187.168,144.615 186.782,144.229C186.395,143.843 186.241,143.457 186.241,142.994C186.241,142.453 186.395,142.067 186.782,141.68C187.168,141.294 187.554,141.139 188.095,141.139ZM125.107,144.075L113.83,144.075L113.83,143.688L115.453,143.071L116.534,142.376C116.92,141.989 117.152,141.603 117.152,141.063L117.152,119.397C117.152,118.857 116.92,118.471 116.534,118.084L115.453,117.312L113.83,116.771L113.83,116.501L123.098,116.385L126.729,116.501C128.66,116.617 130.36,117.274 131.827,118.432C133.411,119.63 134.337,121.174 134.569,123.105C134.801,124.958 134.106,126.503 132.638,127.739C131.364,128.898 129.664,129.516 127.579,129.593C129.278,129.978 130.901,131.33 132.407,133.725L134.723,137.432L136.809,140.753L138.353,142.608C139.048,143.148 139.976,143.534 141.057,143.688L141.057,144.152C138.971,144.307 136.887,144.307 134.878,144.075C133.951,143.998 133.025,143.534 132.136,142.608L129.819,139.363L127.656,135.502L125.339,132.103C124.18,130.829 123.253,130.133 122.52,130.133C122.327,130.133 122.134,130.288 122.134,130.519L122.134,141.139C122.134,141.68 122.327,142.067 122.636,142.453L123.64,143.148L125.107,143.688L125.107,144.075ZM165.812,120.479C163.031,117.93 159.324,116.617 154.767,116.385L147.39,116.501L141.443,116.385L141.443,116.771L143.065,117.312L144.147,118.046C144.533,118.432 144.687,118.857 144.687,119.397L144.687,141.063L144.147,142.453L143.065,143.148L141.443,143.612L141.443,144.075L154.612,144.229C159.555,144.307 163.495,142.916 166.352,139.905C167.511,138.591 168.438,137.123 169.133,135.424C169.673,133.879 169.983,132.296 169.983,130.597C169.983,126.426 168.593,123.027 165.812,120.479ZM187.631,144.152L187.168,144.152L187.168,141.757L188.018,141.757L188.636,141.912L189.022,142.453L188.79,142.916L188.482,143.071L188.868,143.226L189.022,143.612L189.022,144.152L188.636,144.152L188.636,143.843L188.404,143.302L187.941,143.226L187.631,143.226L187.631,144.152ZM30.027,122.409C29.719,120.556 28.793,119.088 27.17,118.046C25.509,116.771 23.154,116.231 20.334,116.308L9.29,116.385L9.29,116.887L9.984,117.003L10.911,117.312L12.148,118.084C12.534,118.471 12.688,118.857 12.688,119.397L12.688,140.985C12.688,141.757 12.07,142.453 10.911,143.148L9.212,143.612L9.212,144.075L16.125,143.998L23.346,144.152C26.166,144.075 28.406,143.38 30.104,142.26C31.881,140.908 32.886,139.209 32.962,137.046C33.04,134.806 32.268,132.875 30.491,131.408C28.869,130.056 27.015,129.361 24.892,129.284C26.397,129.051 27.633,128.434 28.637,127.43C29.873,126.117 30.337,124.495 30.027,122.409ZM182.689,144.075L170.986,144.075L170.986,143.688L172.686,143.148C173.767,142.53 174.308,141.874 174.308,140.985L174.308,119.63C174.308,118.625 173.767,117.853 172.686,117.312L170.986,116.771L170.986,116.385L182.689,116.385L182.689,116.771C182.225,116.887 181.685,117.08 181.066,117.312C179.908,117.93 179.368,118.702 179.368,119.552L179.368,140.985C179.368,141.526 179.599,141.989 179.985,142.376L181.066,143.148L182.689,143.688L182.689,144.075ZM41.227,144.075L31.959,144.075L31.959,143.688L34.121,142.994C35.048,142.453 35.743,141.68 36.13,140.522L44.702,116.115L48.912,115.999L57.949,140.908C58.374,141.989 59.03,142.684 59.88,143.071L61.734,143.612L61.734,144.075L49.685,144.075L49.685,143.612L51.461,142.916C52.079,142.53 52.311,141.912 52.233,141.139L51.615,138.822L49.221,132.103L41.459,132.103L39.065,139.132L38.524,141.449C38.524,142.144 38.833,142.608 39.373,142.994L41.227,143.688L41.227,144.075ZM92.706,144.075L83.554,144.075L83.554,143.612L85.639,142.994C86.643,142.453 87.261,141.68 87.647,140.522L96.259,116.115L100.43,116.115L109.544,140.908C109.968,141.989 110.626,142.684 111.436,143.071L113.213,143.612L113.213,144.075L101.279,144.075L101.279,143.612C102.052,143.457 102.67,143.226 103.056,142.916C103.596,142.53 103.906,141.912 103.828,141.139L100.816,132.103L92.938,132.103L90.544,139.132L90.08,141.449C90.003,142.144 90.312,142.608 90.93,142.994L92.706,143.688L92.706,144.075ZM187.941,142.067L187.631,142.067L187.631,142.916L188.018,142.916L188.404,142.839L188.636,142.53L188.482,142.144L187.941,142.067ZM27.402,136.505C27.479,137.664 27.324,138.591 26.938,139.44C26.011,141.526 24.119,142.684 21.106,142.762C18.867,142.762 17.785,141.912 17.785,140.136L17.785,130.288L20.18,130.056C23.037,130.288 25.123,131.33 26.397,133.339C26.938,134.188 27.324,135.27 27.402,136.505ZM155.153,118.046C157.856,118.548 159.941,119.938 161.563,122.023C163.186,124.186 163.958,126.812 164.035,129.978C164.113,133.184 163.572,135.888 162.413,137.973C161.178,140.367 159.246,141.912 156.544,142.53L154.458,142.762L152.411,142.684C151.562,142.453 150.944,142.26 150.712,141.989C150.171,141.526 149.862,140.753 149.785,139.595L149.785,118.084C151.252,117.66 153.107,117.66 155.153,118.046ZM48.681,130.133L45.398,120.633L42.077,130.133L48.681,130.133ZM100.275,130.133L96.955,120.633L93.633,130.133L100.275,130.133ZM123.949,117.698C125.416,117.775 126.653,118.239 127.656,119.204C128.66,120.17 129.201,121.483 129.278,123.182C129.356,124.727 129.201,125.885 128.738,126.735C128.274,127.507 127.425,128.048 126.188,128.434L124.026,128.666L122.25,128.511L122.25,118.046L123.949,117.698ZM23.115,119.088C24.274,120.092 24.892,121.483 24.892,123.182C24.892,125.113 24.428,126.581 23.501,127.43C22.342,128.434 20.489,128.743 17.785,128.511L17.785,118.084C18.249,117.853 18.789,117.775 19.407,117.698C20.875,117.698 22.111,118.162 23.115,119.088Z" style="fill:black;"/>
        </g>
    </g>
</svg>
