<?xml version="1.0" standalone="no"?><!DOCTYPE svg PUBLIC "-//W3C//DTD SVG 1.1//EN" "http://www.w3.org/Graphics/SVG/1.1/DTD/svg11.dtd"><svg width="100%" height="100%" viewBox="0 0 100 100" version="1.1" xmlns="http://www.w3.org/2000/svg" xmlns:xlink="http://www.w3.org/1999/xlink" xml:space="preserve" style="fill-rule:evenodd;clip-rule:evenodd;stroke-linejoin:round;stroke-miterlimit:1.41421;"><g id="Layer 1"><g><path d="M31.431,75.121l-2.906,1.544c-0.547,-0.545 -1.087,-0.925 -1.619,-1.135c-0.536,-0.213 -1.16,-0.319 -1.879,-0.319c-1.305,0 -2.361,0.394 -3.166,1.176c-0.81,0.78 -1.215,1.787 -1.215,3.008c0,1.189 0.387,2.162 1.165,2.915c0.78,0.751 1.8,1.129 3.067,1.129c1.56,0 2.777,-0.536 3.65,-1.604l2.754,1.87c-1.495,1.927 -3.598,2.891 -6.316,2.891c-2.447,0 -4.367,-0.717 -5.751,-2.16c-1.389,-1.441 -2.076,-3.128 -2.076,-5.059c0,-1.341 0.332,-2.576 1.008,-3.702c0.674,-1.127 1.613,-2.015 2.816,-2.66c1.207,-0.644 2.56,-0.963 4.048,-0.963c1.379,0 2.621,0.267 3.725,0.796c1.101,0.531 1.997,1.289 2.695,2.273ZM32.412,72.4l3.458,0l0,6.71c0,1.307 0.093,2.214 0.276,2.723c0.183,0.508 0.477,0.902 0.884,1.182c0.409,0.283 0.902,0.423 1.497,0.423c0.595,0 1.097,-0.14 1.513,-0.418c0.416,-0.278 0.724,-0.681 0.925,-1.221c0.149,-0.401 0.224,-1.258 0.224,-2.574l0,-6.825l3.458,0l0,5.864c0,2.42 -0.19,4.075 -0.577,4.962c-0.466,1.088 -1.155,1.92 -2.071,2.503c-0.912,0.577 -2.074,0.866 -3.483,0.866c-1.529,0 -2.761,-0.337 -3.707,-1.015c-0.943,-0.681 -1.603,-1.624 -1.99,-2.838c-0.274,-0.839 -0.407,-2.366 -0.407,-4.575l0,-5.767ZM82.861,79.668c0,-2.291 -0.689,-4.132 -2.06,-5.523c-1.373,-1.4 -3.152,-2.094 -5.339,-2.094c-2.065,0 -3.779,0.694 -5.15,2.094c-1.366,1.391 -2.049,3.144 -2.049,5.256c0,2.06 0.683,3.772 2.054,5.14c1.372,1.373 3.146,2.054 5.326,2.054c1.4,0 2.614,-0.244 3.636,-0.742c1.02,-0.495 1.898,-1.26 2.628,-2.298l-2.938,-1.375c-0.936,0.905 -2.055,1.357 -3.36,1.357c-1.088,0 -1.986,-0.289 -2.689,-0.87c-0.701,-0.579 -1.136,-1.357 -1.298,-2.341l11.226,0l0.013,-0.658ZM51.598,68.703c0,0 -0.577,-0.084 -0.815,0.199c-0.452,0.529 -0.144,1.085 -0.144,1.085l1.388,1.375c-1.054,0.439 -2.935,1.533 -4.199,2.877c-1.448,1.544 -2.312,3.34 -2.309,5.794l0.002,6.233l3.838,-0.005l-0.007,-6.233c-0.014,-1.266 0.579,-2.361 1.517,-3.451c0.554,-0.647 1.905,-1.397 2.848,-1.761l0.006,0.022l0.17,2.194c0,0 0.226,0.592 0.927,0.592c0.367,0 0.674,-0.49 0.674,-0.49l4.175,-7.181l-8.071,-1.25ZM65.942,72.4l3.505,0l-5.966,13.849l-2.198,0l-4.233,-9.964l2.055,-3.528l3.318,7.814l3.519,-8.171ZM79.049,77.617c-0.229,-0.769 -0.688,-1.396 -1.373,-1.88c-0.683,-0.486 -1.475,-0.728 -2.379,-0.728c-0.98,0 -1.841,0.276 -2.581,0.817c-0.463,0.336 -0.893,0.938 -1.293,1.791l7.626,0Z" style="fill:#231f20;"/><g><clipPath id="_clip1"><path d="M48.167,13.987l-21.54,21.537c-0.659,0.662 -0.659,1.734 0,2.395l21.54,21.535c0.656,0.664 1.728,0.664 2.392,0l21.535,-21.535c0.664,-0.661 0.664,-1.733 0,-2.395l-21.535,-21.537c-0.332,-0.33 -0.767,-0.496 -1.199,-0.496c-0.432,0 -0.867,0.166 -1.193,0.496Z"/></clipPath><g clip-path="url(#_clip1)"><path d="M25.771,59.926l0.388,-46.631l46.796,0.389l-0.389,46.632l-46.795,-0.39Z" style="fill:url(#_Linear2);fill-rule:nonzero;"/></g><clipPath id="_clip3"><path d="M61.085,35.603c-6.24,2.362 -11.51,2.425 -17.327,2.519c-7.584,0.129 -13.492,-2.223 -16.15,-3.549l-0.984,0.957c-0.659,0.656 -0.659,1.731 0,2.392l21.534,21.532c0.665,0.664 1.737,0.664 2.398,0l21.532,-21.532c0.664,-0.661 0.664,-1.736 0.006,-2.392l-1.16,-1.181c-0.051,0.003 -0.266,-0.087 -0.676,-0.178c-0.408,-0.087 -1.009,-0.175 -1.828,-0.175c-1.573,0 -3.956,0.326 -7.345,1.607Z"/></clipPath><g clip-path="url(#_clip3)"><path d="M27.576,61.595l-1.781,-26.902l46.654,-3.087l1.78,26.902l-46.653,3.087Z" style="fill:url(#_Linear4);fill-rule:nonzero;"/></g><path d="M48.882,25.583c0,0 -0.734,-0.106 -1.042,0.253c-0.577,0.68 -0.187,1.399 -0.187,1.399l1.785,1.752c-1.359,0.564 -3.77,1.969 -5.389,3.696c-1.857,1.976 -2.965,4.277 -2.959,7.427l0.003,7.992l4.92,-0.006l-0.009,-7.992c-0.012,-1.628 0.743,-3.026 1.945,-4.422c0.712,-0.833 2.437,-1.797 3.651,-2.262l0.009,0.024l0.221,2.815c0,0 0.287,0.764 1.178,0.764c0.477,0 0.869,-0.634 0.869,-0.634l5.364,-9.206l-10.359,-1.6Z" style="fill:#030405;fill-rule:nonzero;"/><path d="M48.463,57.443l-19.867,-19.87c-0.233,-0.227 -0.36,-0.535 -0.36,-0.858c0,-0.329 0.127,-0.638 0.36,-0.867l19.867,-19.87c0.233,-0.23 0.541,-0.36 0.867,-0.36c0.326,0 0.628,0.13 0.861,0.36l19.867,19.87c0.48,0.477 0.48,1.253 0,1.725l-19.867,19.87c-0.233,0.229 -0.535,0.356 -0.861,0.356c-0.326,0 -0.634,-0.127 -0.867,-0.356M47.983,15.497l-19.868,19.868c-0.359,0.362 -0.558,0.839 -0.558,1.35c0,0.504 0.199,0.981 0.558,1.341l19.868,19.867c0.359,0.359 0.836,0.559 1.347,0.559c0.504,0 0.981,-0.2 1.341,-0.559l19.87,-19.867c0.74,-0.74 0.74,-1.948 0,-2.691l-19.87,-19.868c-0.36,-0.359 -0.837,-0.555 -1.341,-0.555c-0.511,0 -0.988,0.196 -1.347,0.555" style="fill:#030405;fill-rule:nonzero;"/></g></g></g><defs><linearGradient id="_Linear2" x1="0" y1="0" x2="1" y2="0" gradientUnits="userSpaceOnUse" gradientTransform="matrix(0.168406,-20.228,20.228,0.168406,49.3214,42.0142)"><stop offset="0%" style="stop-color:#fff;stop-opacity:1"/><stop offset="100%" style="stop-color:#fdb812;stop-opacity:1"/></linearGradient><linearGradient id="_Linear4" x1="0" y1="0" x2="1" y2="0" gradientUnits="userSpaceOnUse" gradientTransform="matrix(-1.00048,-15.1204,15.1204,-1.00048,50.1532,48.7715)"><stop offset="0%" style="stop-color:#ffd457;stop-opacity:1"/><stop offset="100%" style="stop-color:#e7a613;stop-opacity:1"/></linearGradient></defs></svg>