<svg viewBox="0 0 497 497" xmlns="http://www.w3.org/2000/svg"><title>logo</title><path d="M44.001 361.272h5.577v46.663c0 5.416 2.46 6.234 4.59 6.234.74 0 1.4-.086 1.4-.086v5.003s-.986.164-2.054.164c-3.438 0-9.514-1.066-9.514-10.083v-47.895h.001zm49.29 32.722c-.33-8.612-5.58-12.634-11.726-12.634-6.887 0-12.876 4.35-14.185 12.634h25.911zM81.727 376.69c11.398 0 17.217 8.775 17.217 19.023 0 .987-.164 2.872-.164 2.872H67.125c.255 10.58 7.467 16.322 15.994 16.322 7.547 0 12.55-5.004 12.55-5.004l2.543 4.265s-5.99 5.74-15.255 5.74c-12.3 0-21.568-8.86-21.568-21.568 0-13.534 9.182-21.65 20.34-21.65h-.002zm21.81.98h5.91l11.485 30.265c.736 2.054 1.39 4.926 1.39 4.926h.164s.655-2.794 1.472-4.925l11.404-30.264h5.826l-15.752 41.26h-6.067l-15.83-41.26-.002-.002zm72.83 16.324c-.335-8.612-5.586-12.634-11.737-12.634-6.888 0-12.87 4.35-14.185 12.634h25.922zm-11.57-17.305c11.405 0 17.226 8.775 17.226 19.023 0 .987-.166 2.872-.166 2.872H150.2c.244 10.58 7.463 16.322 15.99 16.322 7.547 0 12.55-5.004 12.55-5.004l2.54 4.265s-5.98 5.74-15.254 5.74c-12.307 0-21.567-8.86-21.567-21.568 0-13.534 9.19-21.65 20.338-21.65zm27.48-15.418h5.57v46.663c0 5.416 2.465 6.234 4.6 6.234.737 0 1.39-.086 1.39-.086v5.003s-.984.164-2.052.164c-3.44 0-9.508-1.066-9.508-10.083V361.271zm45.973 31.57c-.16-5.65-3.687-8.683-8.277-8.683-5.325 0-9.01 3.274-9.99 8.682h18.266l.001.001zm-8.035-16.727c12.053 0 18.54 8.777 18.54 19.85 0 1.226-.25 4.02-.25 4.02h-28.853c.655 7.296 6.304 11.064 12.53 11.064 6.732 0 12.06-4.592 12.06-4.592l4.016 7.462s-6.395 5.99-16.813 5.99c-13.84 0-22.438-10.006-22.438-21.893 0-12.878 8.762-21.902 21.21-21.902l-.002.001zm26.987-15.42h10.333v43.63c0 4.6 1.557 5.742 4.265 5.742.817 0 1.555-.078 1.555-.078v9.096s-1.555.247-3.282.247c-5.736 0-12.87-1.47-12.87-13.45v-45.185l-.001-.002zm50.192 32.147c-.165-5.65-3.69-8.683-8.288-8.683-5.33 0-9.02 3.274-9.998 8.682h18.285l.001.001zm-8.04-16.727c12.053 0 18.54 8.777 18.54 19.85 0 1.226-.255 4.02-.255 4.02h-28.864c.66 7.296 6.317 11.064 12.547 11.064 6.73 0 12.053-4.592 12.053-4.592l4.023 7.462s-6.396 5.99-16.813 5.99c-13.858 0-22.476-10.006-22.476-21.893 0-12.878 8.782-21.902 21.246-21.902l-.001.001zm21.406.982h10.992l8.69 25.916c.823 2.463 1.4 6.316 1.477 6.316h.165c.085 0 .654-3.854 1.477-6.317l8.69-25.916h10.988l-15.006 41.835h-12.296l-15.176-41.833-.001-.001zm73.398 15.745c-.17-5.65-3.694-8.683-8.285-8.683-5.332 0-9.026 3.274-10.008 8.682h18.292l.001.001zm-8.043-16.727c12.058 0 18.54 8.777 18.54 19.85 0 1.226-.248 4.02-.248 4.02h-28.868c.655 7.296 6.318 11.064 12.545 11.064 6.73 0 12.057-4.592 12.057-4.592l4.02 7.462s-6.394 5.99-16.812 5.99c-13.858 0-22.476-10.006-22.476-21.893 0-12.878 8.783-21.902 21.24-21.902l.002.001zm27.152.982h10.005v4.838c0 1.563-.162 2.87-.162 2.87h.162c1.805-3.522 6.396-8.69 14.84-8.69 9.272 0 14.52 4.84 14.52 15.912v26.904h-10.337v-24.77c0-5.083-1.307-8.536-6.637-8.536-5.584 0-9.68 3.532-11.243 8.535-.57 1.718-.737 3.608-.737 5.575v19.196h-10.41v-41.834h-.001zM248.587 77.002c-67.257 0-121.982 54.729-121.982 122.013 0 67.28 54.725 122.02 121.982 122.02 67.279 0 122.018-54.74 122.018-122.022C370.605 131.733 315.868 77 248.589 77l-.002.002zm68.175 161.945h-26.855v27.43a78.557 78.557 0 0 1-41.32 11.691c-43.572 0-79.014-35.462-79.014-79.055 0-43.59 35.442-79.05 79.014-79.05 43.59 0 79.05 35.46 79.05 79.048a78.482 78.482 0 0 1-10.873 39.934l-.002.002zm-70.817-20.512v13.367h-29.218v-13.367h7.333V178.07h-11.592v-12.248h26.976v52.613h6.5zm38.823 0v13.367h-29.235v-13.367h7.333V178.07H251.26v-12.248h27.014v52.613h6.494z" fill="#EA4C30" fill-rule="evenodd"/></svg>
