<?xml version="1.0" standalone="no"?><!DOCTYPE svg PUBLIC "-//W3C//DTD SVG 1.1//EN" "http://www.w3.org/Graphics/SVG/1.1/DTD/svg11.dtd"><svg width="100%" height="100%" viewBox="0 0 485 485" version="1.1" xmlns="http://www.w3.org/2000/svg" xmlns:xlink="http://www.w3.org/1999/xlink" xml:space="preserve" style="fill-rule:evenodd;clip-rule:evenodd;stroke-linejoin:round;stroke-miterlimit:1.41421;"><path d="M229.915,255.691c7.352,1.375 14.808,1.477 22.06,0.394c0.279,1.529 0.601,3.05 0.963,4.561c0.941,3.923 2.158,7.779 3.622,11.539c1.369,3.515 2.955,6.946 4.727,10.276c2.144,4.029 4.561,7.911 7.2,11.634c0.768,1.085 1.556,2.156 2.36,3.213c0.274,0.36 0.549,0.718 0.827,1.074c0.171,0.22 0.316,0.411 0.508,0.62c0.106,0.115 0.222,0.221 0.332,0.332l0.255,0.234c0.233,0.214 0.467,0.428 0.701,0.642c-0.516,3.205 -1.193,6.385 -2.061,9.514c-1.717,6.192 -4.192,12.203 -7.637,17.64l-0.177,0.278c-14.481,2.267 -29.366,2.267 -44.092,-0.158c-0.461,-0.865 -0.905,-1.74 -1.333,-2.623c-1.09,-2.247 -2.077,-4.543 -2.986,-6.868c-1.129,-2.886 -2.138,-5.818 -3.058,-8.777c-0.846,-2.72 -1.616,-5.463 -2.327,-8.221c-0.275,-1.068 -0.54,-2.139 -0.799,-3.211c-0.079,-0.33 -0.157,-0.661 -0.236,-0.992c-0.022,-0.322 -0.043,-0.644 -0.062,-0.966l0.099,-0.106c0.941,-1.006 1.866,-2.026 2.765,-3.069c1.075,-1.246 2.114,-2.523 3.114,-3.829c2.631,-3.437 4.992,-7.079 7.05,-10.887c1.687,-3.122 3.17,-6.353 4.442,-9.666c1.296,-3.378 2.372,-6.839 3.23,-10.353c0.18,-0.74 0.351,-1.481 0.513,-2.225ZM271.046,326.268c3.134,-5.902 5.353,-12.266 6.853,-18.77c0.218,-0.945 0.42,-1.892 0.609,-2.843c0.952,0.811 1.913,1.613 2.882,2.403c2.007,1.637 4.051,3.227 6.141,4.755c2.193,1.603 4.435,3.14 6.737,4.582c0.903,0.566 1.815,1.117 2.737,1.651c-8.369,3.579 -17.067,6.332 -25.959,8.222ZM182.019,315.646l0.198,-0.089c6.394,-2.899 12.292,-6.819 17.656,-11.331c0.92,-0.774 1.824,-1.565 2.714,-2.372c0.409,-0.372 0.816,-0.747 1.219,-1.126c0.248,0.995 0.502,1.989 0.765,2.98c1.057,3.994 2.239,7.956 3.597,11.859c1.246,3.583 2.639,7.118 4.242,10.558c-10.321,-2.26 -20.517,-5.734 -30.391,-10.479ZM288.129,238.473c1.243,1.249 2.525,2.46 3.843,3.63c3.044,2.701 6.277,5.187 9.659,7.45c3.164,2.117 6.457,4.038 9.847,5.769c3.712,1.895 7.54,3.561 11.446,5.014c1.035,0.386 2.076,0.756 3.122,1.112c0.532,0.181 1.066,0.359 1.601,0.532c0.014,0.005 0.622,0.202 0.641,0.206c0.303,0.077 0.609,0.142 0.913,0.212l0.343,0.051c0.969,0.141 1.938,0.277 2.909,0.406c1.156,2.577 2.196,5.206 3.095,7.883c2.045,6.091 3.361,12.458 3.552,18.891c0.004,0.141 0.008,0.282 0.011,0.423c-10.591,10.277 -22.63,18.662 -35.584,25.005c-1.221,-0.619 -2.424,-1.276 -3.609,-1.962c-2.161,-1.252 -4.264,-2.601 -6.32,-4.018c-2.551,-1.759 -5.029,-3.623 -7.449,-5.559c-2.224,-1.78 -4.398,-3.621 -6.532,-5.508l-0.02,-0.018c0.135,-1.029 0.254,-2.06 0.36,-3.092c0.196,-1.919 0.35,-3.842 0.433,-5.769c0.119,-2.778 0.102,-5.562 -0.056,-8.338c-0.226,-3.96 -0.739,-7.903 -1.536,-11.788c-0.819,-3.997 -1.937,-7.93 -3.331,-11.764c-0.94,-2.586 -2.006,-5.125 -3.186,-7.61c5.738,-2.895 11.09,-6.634 15.848,-11.158ZM193.327,235.525c4.567,4.921 9.961,9.228 16.119,12.7c0.555,0.313 1.114,0.617 1.674,0.913c-1.046,2.251 -1.992,4.549 -2.838,6.883c-1.355,3.74 -2.452,7.574 -3.298,11.461c-0.829,3.808 -1.416,7.668 -1.781,11.548c-0.39,4.149 -0.524,8.322 -0.432,12.488c0.015,0.708 0.038,1.416 0.066,2.123c-3.124,3.184 -6.454,6.172 -10.013,8.865c-5.123,3.877 -10.739,7.151 -16.777,9.38c-0.262,0.097 -0.525,0.191 -0.788,0.284c-0.474,-0.26 -0.948,-0.523 -1.42,-0.79c-12.608,-7.108 -23.682,-15.894 -33.099,-25.919c0.172,-1.088 0.37,-2.171 0.59,-3.25c0.499,-2.447 1.108,-4.87 1.797,-7.27c0.856,-2.979 1.834,-5.921 2.899,-8.831c0.979,-2.675 2.033,-5.322 3.143,-7.945c0.43,-1.016 0.869,-2.027 1.314,-3.036c0.091,-0.206 0.183,-0.412 0.274,-0.618c0.135,-0.02 0.269,-0.04 0.404,-0.061c0.801,-0.122 1.601,-0.253 2.399,-0.392c0.731,-0.127 1.46,-0.261 2.188,-0.406c0.904,-0.179 1.805,-0.373 2.703,-0.581c3.364,-0.782 6.68,-1.771 9.92,-2.965c3.655,-1.348 7.213,-2.958 10.639,-4.811c3.395,-1.836 6.659,-3.91 9.77,-6.194c1.555,-1.142 3.071,-2.335 4.547,-3.576ZM267.046,251.997c0.436,0.914 0.855,1.837 1.257,2.768c1.342,3.106 2.492,6.297 3.429,9.549c0.916,3.181 1.628,6.421 2.125,9.695c0.645,4.243 0.928,8.54 0.855,12.831c-0.019,1.112 -0.062,2.224 -0.128,3.334c-0.046,0.772 -0.104,1.543 -0.17,2.313c-1.266,-1.715 -2.482,-3.466 -3.644,-5.253c-3.137,-4.826 -5.875,-9.918 -8.09,-15.233c-1.116,-2.677 -2.099,-5.409 -2.935,-8.185c-0.874,-2.898 -1.587,-5.844 -2.13,-8.822c3.211,-0.766 6.364,-1.767 9.431,-2.997ZM216.311,251.598c2.634,1.112 5.308,2.042 8.007,2.793c-0.185,0.856 -0.383,1.708 -0.595,2.558c-0.819,3.283 -1.842,6.516 -3.073,9.669c-1.203,3.084 -2.604,6.091 -4.196,8.994c-2.064,3.763 -4.448,7.349 -7.112,10.715c-0.277,0.35 -0.558,0.699 -0.841,1.044l0.004,-0.258c0.104,-5.756 0.687,-11.507 1.828,-17.152c0.575,-2.842 1.291,-5.656 2.153,-8.425c0.905,-2.91 1.973,-5.769 3.201,-8.558c0.204,-0.462 0.412,-0.923 0.624,-1.38ZM344.499,284.522c-0.751,-6.914 -2.601,-13.682 -5.164,-20.138c-0.102,-0.257 -0.205,-0.513 -0.31,-0.769c2.276,0.222 4.556,0.398 6.839,0.521c4.259,0.229 8.532,0.272 12.792,0.025c0.482,-0.028 0.963,-0.059 1.445,-0.095c-4.635,7.405 -9.869,14.233 -15.602,20.456ZM118.326,253.584c7.124,1.758 14.514,2.293 21.833,1.968c1.332,-0.059 2.662,-0.147 3.99,-0.261c-2.102,4.921 -4.019,9.924 -5.628,15.028c-0.814,2.58 -1.547,5.186 -2.173,7.817c-0.151,0.635 -0.296,1.272 -0.433,1.91c-6.91,-8.178 -12.793,-17.069 -17.589,-26.462ZM307.399,204.027c2.461,0.429 4.941,0.749 7.431,0.961c3.956,0.337 7.934,0.401 11.899,0.209c3.983,-0.193 7.953,-0.644 11.882,-1.326c4.106,-0.713 8.168,-1.678 12.164,-2.861c1.059,-0.313 2.114,-0.642 3.164,-0.985c0.535,-0.175 1.068,-0.353 1.6,-0.536c0.015,-0.004 0.618,-0.212 0.636,-0.219c0.289,-0.12 0.572,-0.253 0.858,-0.379l0.304,-0.165c0.216,-0.118 0.431,-0.236 0.646,-0.354c1.263,0.771 2.507,1.572 3.73,2.404c0.951,0.647 1.889,1.313 2.813,1.999c0.665,0.493 1.322,0.997 1.971,1.511c4.613,3.654 8.823,7.85 12.282,12.62c-2.745,14.032 -7.715,27.87 -15.049,41.02c-1.373,0.179 -2.752,0.315 -4.133,0.417c-2.491,0.182 -4.989,0.251 -7.486,0.237c-3.098,-0.017 -6.196,-0.162 -9.285,-0.4c-2.176,-0.168 -4.347,-0.381 -6.515,-0.633c-0.674,-1.386 -1.379,-2.758 -2.111,-4.114c-0.654,-1.212 -1.327,-2.414 -2.029,-3.598c-0.793,-1.338 -1.623,-2.655 -2.488,-3.947c-2.413,-3.601 -5.108,-7.013 -8.058,-10.19c-2.417,-2.604 -5.005,-5.05 -7.739,-7.32c-2.731,-2.269 -5.607,-4.362 -8.599,-6.274c-1.146,-0.732 -2.309,-1.437 -3.488,-2.116c2.591,-5.168 4.446,-10.53 5.6,-15.961ZM299.008,225.01c1.077,0.622 2.139,1.267 3.187,1.936c2.852,1.822 5.591,3.821 8.188,5.991c2.541,2.122 4.945,4.408 7.191,6.841c2.91,3.154 5.551,6.556 7.893,10.152c0.608,0.932 1.195,1.877 1.762,2.834c0.444,0.749 0.875,1.505 1.297,2.267c0.267,0.481 0.53,0.965 0.79,1.45c-0.776,-0.253 -1.55,-0.513 -2.322,-0.783c-2.132,-0.746 -4.241,-1.556 -6.323,-2.434c-5.37,-2.265 -10.552,-4.988 -15.417,-8.201c-4.726,-3.122 -9.147,-6.707 -13.137,-10.726c2.526,-2.859 4.836,-5.971 6.891,-9.327ZM103.84,205.098c1.005,-0.967 2.04,-1.904 3.098,-2.812c1.894,-1.628 3.861,-3.169 5.877,-4.642c2.502,-1.829 5.079,-3.553 7.705,-5.199c1.91,-1.196 3.845,-2.351 5.801,-3.47c0.859,0.428 1.724,0.845 2.594,1.25c1.132,0.528 2.272,1.036 3.421,1.527c0.936,0.399 1.878,0.787 2.827,1.157c1.363,0.531 2.739,1.027 4.128,1.486c5.213,1.724 10.596,2.929 16.048,3.582c3.305,0.395 6.633,0.589 9.961,0.585c3.415,-0.004 6.829,-0.215 10.22,-0.622c0.153,-0.019 0.307,-0.038 0.46,-0.057c0.812,6.897 2.693,13.636 5.571,19.957c-1.425,0.752 -2.829,1.544 -4.21,2.376c-3.718,2.241 -7.264,4.765 -10.613,7.526c-3.203,2.64 -6.225,5.497 -9.06,8.528c-2.982,3.189 -5.757,6.57 -8.331,10.097c-0.677,0.928 -1.339,1.865 -1.988,2.812c-4.038,0.502 -8.107,0.762 -12.176,0.712c-6.425,-0.078 -12.869,-0.936 -19.005,-2.877c-0.385,-0.122 -0.769,-0.248 -1.152,-0.379c-5.837,-13.177 -9.612,-27.202 -11.176,-41.537ZM184.155,222.961c1.604,2.847 3.423,5.585 5.45,8.188c-0.687,0.578 -1.384,1.144 -2.089,1.699c-2.661,2.091 -5.452,4.018 -8.357,5.754c-2.842,1.699 -5.792,3.215 -8.83,4.532c-3.938,1.707 -8.02,3.078 -12.187,4.104c-0.914,0.225 -1.831,0.433 -2.752,0.625c0.809,-1.061 1.639,-2.106 2.489,-3.134c4.088,-4.946 8.65,-9.507 13.674,-13.502c3.937,-3.132 8.155,-5.912 12.602,-8.266ZM381.159,183.029c0.457,8.711 0.099,17.499 -1.108,26.247c-4.656,-5.38 -10.165,-9.988 -16.091,-13.91l-0.321,-0.212c1.716,-1.014 3.415,-2.056 5.094,-3.13c2.858,-1.828 5.658,-3.747 8.369,-5.786c1.378,-1.037 2.733,-2.105 4.057,-3.209ZM308.718,186.099c1.417,-0.115 2.837,-0.194 4.258,-0.236c0.755,-0.022 1.51,-0.033 2.265,-0.036c0.139,0 0.277,0 0.416,0.001c0.699,0.003 1.398,0.014 2.097,0.034c1.5,0.045 2.998,0.131 4.493,0.261c3.666,0.319 7.309,0.899 10.891,1.739c4.766,1.12 9.421,2.703 13.888,4.705c1.53,0.686 3.035,1.424 4.525,2.193l-0.305,0.097c-2.153,0.684 -4.326,1.302 -6.518,1.85c-5.655,1.412 -11.434,2.346 -17.254,2.696c-5.91,0.356 -11.858,0.107 -17.71,-0.807c-0.472,-0.074 -0.944,-0.152 -1.415,-0.235c0.504,-4.09 0.622,-8.195 0.369,-12.262ZM104.041,173.163c0.972,0.997 1.976,1.964 3.008,2.899c2.433,2.206 5.02,4.24 7.718,6.112c1.834,1.274 3.719,2.473 5.644,3.603c-0.469,0.28 -0.937,0.563 -1.404,0.849c-2.218,1.356 -4.405,2.763 -6.549,4.234c-2.249,1.543 -4.452,3.155 -6.586,4.854c-0.889,0.709 -1.767,1.432 -2.63,2.173c-0.466,-8.203 -0.209,-16.477 0.799,-24.724ZM175.554,192.146c-0.842,0.109 -1.685,0.204 -2.53,0.287c-3.358,0.329 -6.738,0.45 -10.111,0.351c-3.3,-0.097 -6.593,-0.404 -9.853,-0.925c-4.308,-0.688 -8.555,-1.75 -12.683,-3.16c-1.133,-0.387 -2.257,-0.8 -3.371,-1.238c-0.81,-0.318 -1.614,-0.651 -2.415,-0.993c-0.616,-0.263 -1.23,-0.532 -1.842,-0.806c1.254,-0.413 2.515,-0.807 3.782,-1.176c3.253,-0.946 6.549,-1.742 9.878,-2.366c3.579,-0.67 7.195,-1.141 10.828,-1.387c1.277,-0.086 2.556,-0.145 3.835,-0.175c0.582,-0.014 1.165,-0.021 1.747,-0.023c0.247,-0.001 0.493,0 0.74,0.001c0.57,0.004 1.139,0.012 1.708,0.027c1.19,0.031 2.38,0.087 3.567,0.17c2.423,0.168 4.838,0.444 7.235,0.831c-0.456,3.527 -0.625,7.065 -0.515,10.582ZM302.511,161.812c1.644,-0.843 3.26,-1.74 4.845,-2.688c3.386,-2.025 6.631,-4.281 9.718,-6.737c3.023,-2.404 5.894,-4.999 8.606,-7.75c3.204,-3.25 6.186,-6.717 8.951,-10.347c0.805,-1.058 1.592,-2.129 2.36,-3.213l0.093,-0.13c2.824,-0.402 5.665,-0.687 8.514,-0.835c1.367,-0.07 2.735,-0.107 4.103,-0.113c0.14,0 0.279,0 0.419,0c1.22,0.005 2.44,0.034 3.659,0.095c2.607,0.13 5.207,0.397 7.783,0.822c2.465,0.408 4.908,0.961 7.303,1.675c6.207,13.696 10.175,28.329 11.734,43.291c-0.556,0.514 -1.12,1.02 -1.691,1.518c-1.883,1.641 -3.839,3.196 -5.844,4.684c-2.489,1.846 -5.053,3.59 -7.667,5.254c-2.402,1.53 -4.847,2.993 -7.322,4.403l-0.017,0.009c-1.226,-0.696 -2.467,-1.367 -3.719,-2.016c-1.633,-0.846 -3.285,-1.657 -4.963,-2.409c-2.377,-1.066 -4.804,-2.022 -7.271,-2.86c-4.99,-1.697 -10.142,-2.91 -15.365,-3.62c-2.397,-0.326 -4.808,-0.546 -7.224,-0.663c-1.279,-0.062 -2.559,-0.093 -3.839,-0.099c-0.297,-0.001 -0.593,0 -0.89,0.001c-0.878,0.008 -1.757,0.026 -2.635,0.058c-1.347,0.05 -2.693,0.131 -4.037,0.242c-0.957,-6.423 -2.845,-12.685 -5.604,-18.572ZM120.148,123.272c2.215,-0.343 4.445,-0.59 6.679,-0.764c2.157,-0.168 4.32,-0.268 6.483,-0.314c0.903,-0.019 1.806,-0.028 2.708,-0.03c0.373,-0.001 0.746,0 1.118,0.002c2.068,0.015 4.135,0.069 6.2,0.162c1.357,0.06 2.713,0.137 4.068,0.227c0.455,0.89 0.922,1.775 1.401,2.652c0.471,0.862 0.953,1.719 1.445,2.569c0.463,0.799 0.935,1.593 1.42,2.379c0.628,1.017 1.277,2.021 1.947,3.011c2.497,3.687 5.289,7.174 8.348,10.41c2.51,2.655 5.197,5.141 8.037,7.439c2.886,2.335 5.928,4.477 9.093,6.417c1.255,0.769 2.529,1.506 3.821,2.211c-2.71,5.257 -4.653,10.721 -5.864,16.261c-2.674,-0.434 -5.368,-0.74 -8.07,-0.92c-1.273,-0.084 -2.548,-0.141 -3.824,-0.171c-0.61,-0.014 -1.219,-0.021 -1.829,-0.023c-0.176,-0.001 -0.352,-0.001 -0.528,0c-0.891,0.004 -1.781,0.018 -2.672,0.047c-2.028,0.066 -4.054,0.199 -6.074,0.395c-5.082,0.495 -10.122,1.395 -15.074,2.639c-2,0.502 -3.985,1.06 -5.955,1.67c-0.749,0.232 -1.495,0.471 -2.239,0.718c-0.215,0.071 -0.43,0.143 -0.644,0.215c-0.105,0.035 -0.212,0.065 -0.315,0.107c-0.29,0.118 -0.574,0.248 -0.861,0.372l-0.305,0.163c-0.82,0.44 -1.637,0.883 -2.451,1.332c-2.389,-1.287 -4.722,-2.677 -6.979,-4.183c-1.064,-0.71 -2.11,-1.446 -3.137,-2.208c-4.02,-2.986 -7.747,-6.394 -10.954,-10.243c2.577,-14.541 7.528,-28.903 15.007,-42.542ZM295.257,149.806c1.242,-1.086 2.516,-2.135 3.822,-3.145c2.758,-2.133 5.654,-4.089 8.669,-5.84c3.028,-1.758 6.176,-3.31 9.416,-4.637c3.478,-1.423 7.061,-2.588 10.709,-3.488c0.295,-0.073 0.59,-0.144 0.887,-0.213c-0.51,0.642 -1.026,1.279 -1.551,1.909c-3.727,4.481 -7.836,8.65 -12.324,12.372c-4.557,3.781 -9.502,7.095 -14.763,9.816l-0.269,0.139c-1.381,-2.388 -2.914,-4.698 -4.596,-6.913ZM185.878,154.47c-1.24,-0.675 -2.464,-1.382 -3.669,-2.12c-2.944,-1.804 -5.773,-3.796 -8.457,-5.968c-2.574,-2.083 -5.013,-4.332 -7.295,-6.731c-2.901,-3.05 -5.544,-6.343 -7.905,-9.828c-0.623,-0.92 -1.227,-1.853 -1.81,-2.799c-0.456,-0.739 -0.9,-1.486 -1.335,-2.237c-0.183,-0.316 -0.364,-0.632 -0.544,-0.95c1.961,0.563 3.906,1.179 5.831,1.852c5.502,1.923 10.846,4.313 15.903,7.214c5.136,2.946 9.972,6.419 14.362,10.394c0.68,0.616 1.35,1.244 2.008,1.883c-2.593,2.84 -4.969,5.941 -7.089,9.29ZM309.277,68.235c0.418,0.23 0.835,0.463 1.252,0.698c12.793,7.212 24.006,16.151 33.512,26.361c-0.198,1.112 -0.423,2.22 -0.672,3.323c-0.548,2.436 -1.207,4.847 -1.945,7.232c-0.916,2.96 -1.955,5.882 -3.079,8.77c-1.034,2.654 -2.141,5.279 -3.305,7.879c-0.45,1.007 -0.91,2.009 -1.375,3.008l-0.079,0.169c-0.559,0.093 -1.117,0.19 -1.674,0.291c-0.73,0.133 -1.458,0.272 -2.185,0.422c-0.992,0.204 -1.981,0.426 -2.966,0.665c-3.764,0.917 -7.466,2.094 -11.065,3.529c-3.587,1.429 -7.071,3.114 -10.421,5.033c-3.255,1.866 -6.382,3.952 -9.361,6.232c-1.479,1.133 -2.922,2.313 -4.326,3.536c-4.682,-5.169 -10.26,-9.683 -16.666,-13.294c-0.869,-0.491 -1.745,-0.959 -2.626,-1.406c0.938,-1.985 1.799,-4.007 2.581,-6.059c1.451,-3.803 2.632,-7.706 3.552,-11.67c0.86,-3.708 1.492,-7.468 1.911,-11.251c0.459,-4.143 0.664,-8.312 0.641,-12.479c-0.004,-0.714 -0.014,-1.428 -0.031,-2.141c1.992,-2.01 4.063,-3.941 6.219,-5.773c1.068,-0.907 2.157,-1.789 3.268,-2.644c0.724,-0.557 1.458,-1.103 2.201,-1.636c5.068,-3.634 10.588,-6.683 16.485,-8.742l0.154,-0.053ZM180.398,65.474c1.78,0.906 3.522,1.885 5.231,2.917c2.075,1.253 4.102,2.586 6.089,3.975c4.324,3.024 8.458,6.313 12.462,9.75c-0.178,1.257 -0.334,2.517 -0.47,3.778c-0.138,1.287 -0.256,2.576 -0.342,3.867c-0.108,1.634 -0.17,3.271 -0.182,4.908c-0.026,3.304 0.145,6.609 0.516,9.892c0.368,3.257 0.933,6.492 1.687,9.682c1.373,5.802 3.376,11.448 5.918,16.839c-5.133,2.675 -9.946,6.031 -14.286,10.027c-2.215,-2.154 -4.547,-4.187 -6.982,-6.088c-3.136,-2.449 -6.44,-4.68 -9.874,-6.69c-3.363,-1.969 -6.85,-3.725 -10.426,-5.274c-3.824,-1.658 -7.749,-3.08 -11.738,-4.285c-1.165,-0.351 -2.335,-0.685 -3.51,-1c-0.436,-0.117 -0.871,-0.231 -1.308,-0.343c-0.014,-0.004 -0.633,-0.162 -0.652,-0.165c-0.307,-0.058 -0.616,-0.11 -0.925,-0.154l-0.246,-0.021c-1.2,-2.544 -2.285,-5.143 -3.229,-7.793c-0.429,-1.201 -0.828,-2.413 -1.195,-3.634c-1.413,-4.697 -2.357,-9.551 -2.648,-14.45c10.703,-10.593 22.929,-19.225 36.11,-25.738ZM216.511,128.648c-0.587,-1.243 -1.143,-2.5 -1.667,-3.771c-1.29,-3.129 -2.387,-6.338 -3.269,-9.606c-0.863,-3.196 -1.52,-6.447 -1.963,-9.728c-0.574,-4.254 -0.785,-8.555 -0.64,-12.844c0.038,-1.112 0.099,-2.223 0.184,-3.332c0.041,-0.549 0.089,-1.097 0.142,-1.645c1.13,1.502 2.221,3.034 3.27,4.594c3.189,4.743 5.984,9.757 8.264,15c1.18,2.713 2.222,5.486 3.111,8.308c0.907,2.88 1.655,5.81 2.232,8.773c0.066,0.338 0.13,0.677 0.191,1.016c-3.361,0.822 -6.657,1.903 -9.855,3.235ZM259.585,125.794c0.481,-2.148 1.046,-4.277 1.698,-6.38c1.066,-3.44 2.364,-6.808 3.892,-10.069c1.506,-3.212 3.235,-6.319 5.174,-9.291c1.49,-2.285 3.103,-4.489 4.828,-6.603l-0.014,0.381c-0.219,5.825 -0.931,11.635 -2.216,17.322c-1.304,5.776 -3.201,11.419 -5.708,16.784c-0.058,0.123 -0.115,0.246 -0.174,0.368c-2.464,-0.994 -4.961,-1.83 -7.48,-2.512ZM348.792,100.67c6.544,7.805 12.157,16.252 16.787,25.161c-2.631,-0.561 -5.298,-0.962 -7.976,-1.218c-1.677,-0.161 -3.36,-0.265 -5.044,-0.318c-0.808,-0.025 -1.617,-0.038 -2.425,-0.041c-0.3,0 -0.6,0.001 -0.9,0.003c-1.47,0.014 -2.939,0.061 -4.406,0.144c-1.505,0.085 -3.008,0.207 -4.507,0.361c1.229,-2.749 2.397,-5.527 3.485,-8.336c1.255,-3.241 2.405,-6.526 3.404,-9.856c0.584,-1.951 1.117,-3.918 1.582,-5.9ZM220.342,52.74c14.583,-2.33 29.584,-2.36 44.422,0.072c0.674,1.307 1.307,2.635 1.906,3.977c0.978,2.194 1.866,4.427 2.683,6.685c1.008,2.784 1.91,5.606 2.731,8.451c0.737,2.552 1.408,5.123 2.028,7.706c0.257,1.072 0.504,2.147 0.745,3.223c0.074,0.332 0.147,0.664 0.22,0.996c0.017,0.329 0.033,0.659 0.047,0.988l-0.063,0.066c-0.574,0.606 -1.142,1.218 -1.7,1.838c-0.797,0.888 -1.577,1.792 -2.336,2.712c-2.937,3.558 -5.577,7.36 -7.878,11.359c-1.775,3.085 -3.347,6.285 -4.708,9.574c-1.416,3.42 -2.603,6.933 -3.564,10.508c-0.324,1.207 -0.622,2.421 -0.895,3.64c-7.26,-1.302 -14.615,-1.368 -21.767,-0.28c-0.433,-2.375 -0.968,-4.732 -1.6,-7.063c-1.065,-3.919 -2.405,-7.761 -3.991,-11.499c-1.484,-3.496 -3.183,-6.9 -5.067,-10.198c-2.116,-3.705 -4.466,-7.275 -7.007,-10.704c-0.791,-1.067 -1.6,-2.121 -2.427,-3.162c-0.281,-0.353 -0.564,-0.705 -0.849,-1.056c-0.176,-0.216 -0.325,-0.405 -0.522,-0.609c-0.123,-0.127 -0.239,-0.236 -0.36,-0.344c0.576,-3.288 1.321,-6.546 2.267,-9.747c1.778,-6.019 4.276,-11.854 7.685,-17.133ZM138.881,96.876c0.058,0.404 0.12,0.808 0.186,1.212c0.733,4.498 1.919,8.918 3.449,13.209c0.643,1.803 1.346,3.583 2.102,5.34c-1.687,-0.085 -3.375,-0.147 -5.064,-0.182c-0.988,-0.022 -1.977,-0.033 -2.965,-0.036c-0.193,0 -0.386,0 -0.579,0c-0.941,0.002 -1.882,0.011 -2.823,0.031c-2.353,0.051 -4.706,0.162 -7.053,0.35c-0.782,0.063 -1.563,0.134 -2.343,0.215c4.486,-7.271 9.546,-13.993 15.09,-20.139ZM271.782,54.15c10.432,2.27 20.738,5.78 30.713,10.587c-5.907,2.613 -11.411,6.087 -16.474,10.088c-0.743,0.587 -1.477,1.185 -2.202,1.795c-1.273,1.07 -2.518,2.173 -3.736,3.305c-0.076,-0.328 -0.152,-0.655 -0.23,-0.983c-0.682,-2.887 -1.427,-5.76 -2.25,-8.61c-0.88,-3.051 -1.85,-6.076 -2.937,-9.059c-0.866,-2.377 -1.807,-4.726 -2.843,-7.033l-0.041,-0.09ZM212.857,54.145c-1.645,3.078 -3.046,6.284 -4.228,9.567c-1.362,3.786 -2.434,7.671 -3.261,11.608c-2.957,-2.451 -5.988,-4.813 -9.113,-7.046c-2.946,-2.105 -5.977,-4.099 -9.113,-5.912c8.291,-3.562 16.907,-6.313 25.715,-8.217Z" style="fill:#000;"/><text x="84.906px" y="414.13px" style="font-family:'Frontage-Bold';font-size:48px;fill:#000;">ORG<tspan x="221.802px 273.882px " y="414.13px 414.13px ">AN</tspan>IC</text></svg>