<svg viewBox="0 0 345 345" xmlns="http://www.w3.org/2000/svg" fill-rule="evenodd" clip-rule="evenodd" stroke-linejoin="round" stroke-miterlimit="1.414"><path d="M20.1 169.845c-1.603 8.475 2.062 16.035 11.11 16.035 1.375 0 2.749-.115 4.123-.458.229 4.237 2.406 5.726 6.643 5.726l3.895-.229 1.374-7.215c-.916.229-1.718.343-2.634.343-1.146 0-2.749-.229-2.749-1.603 4.696-2.635 7.33-8.018 8.247-12.714 1.832-9.277-2.062-16.378-11.798-16.378-4.581 0-8.475 1.259-12.255 4.81-3.207 3.322-5.154 7.559-5.956 11.683zm132.06 7.216c-.802 2.061-2.062 2.863-4.123 2.863-2.749 0-3.322-1.833-2.635-4.352h15.692l.229-1.26c1.489-7.674-2.291-12.714-10.079-12.714-3.322 0-7.102 1.146-9.965 3.665-2.634 2.291-4.581 5.613-5.154 8.82-.687 3.321 0 6.528 2.176 8.819 2.176 2.291 5.383 3.092 8.819 3.092 5.498 0 11.11-2.634 13.63-8.361l-8.59-.572zm149.698.916c.115 2.291 2.52 2.52 4.467 2.52.916 0 3.551-.115 3.78-1.489.229-1.146-2.864-1.375-3.665-1.489-4.811-.688-10.423-1.604-9.278-7.903.573-2.635 2.406-4.811 4.811-6.185 2.52-1.375 5.268-1.833 7.903-1.833 4.467 0 8.705 1.718 9.392 6.071l-7.216 1.374c-.344-1.604-2.062-2.062-3.665-2.062-.687 0-2.978.229-3.207 1.26-.115.687.573 1.031 1.145 1.146.916.229 2.749.458 3.894.572 2.062.229 4.353.573 6.071 1.718 1.947 1.375 2.634 3.436 2.176 5.956-1.26 6.529-8.476 8.361-13.744 8.361-5.269 0-9.736-1.718-10.423-7.101l7.559-.916zm-69.179-16.379c-7.331 0-13.859 4.925-15.348 12.37-1.375 7.101 3.436 12.026 10.537 12.026 7.216 0 13.859-4.925 15.233-12.026 1.604-7.445-3.092-12.37-10.422-12.37zm34.131 23.938c-.343-1.718-.114-3.436.229-5.154l1.604-8.247c.687-3.321 1.603-6.414-1.031-8.59-1.947-1.603-5.498-2.061-8.246-2.061-5.269 0-11.11 1.489-13.63 7.33l8.246.802c.688-1.947 2.291-2.635 4.124-2.635 2.176 0 2.634.802 2.176 2.978v.229c-3.093.229-6.414.573-9.507 1.489-3.436 1.031-6.872 3.436-7.559 7.216-.916 4.696 2.405 7.101 6.872 7.101 3.207 0 6.071-1.031 8.476-3.779a16.355 16.355 0 0 0-.344 3.321h8.59zm-156.57-8.934c-1.947 6.071-6.987 9.278-12.943 9.278-3.436 0-5.956-.802-8.017-3.207-1.947-2.405-2.405-5.612-1.718-8.934 1.374-7.101 7.216-12.255 14.431-12.255 5.727 0 9.736 3.436 9.278 9.277l-8.132.687v-.229c0-1.603 0-3.436-2.062-3.436-2.863 0-3.665 3.78-4.009 5.841-.458 2.177-1.031 5.727 1.947 5.727 1.947 0 3.093-1.832 3.665-3.436l7.56.687zm-38.599 8.591h-8.205l-.041.229v-.229h.041l.646-3.551h-.115c-1.489 2.978-4.925 4.238-7.903 4.238-1.947 0-3.665-.458-4.925-1.833-1.374-1.603-1.145-3.665-.687-5.956l3.093-16.149h9.048l-2.749 14.202c-.344 1.489-.687 3.093 1.375 3.093.916 0 1.832-.458 2.405-1.375.572-.801.802-1.603.916-2.52l2.634-13.515h9.049l-4.582 23.366zm206.508.458h-9.162l4.581-23.48h8.819l-.687 3.321h.115c1.603-2.634 4.581-3.779 7.33-3.779 2.176 0 4.581.687 5.612 2.405 1.145 1.947.573 4.581.115 7.101l-2.864 14.432h-9.163l2.749-14.317c.229-1.375.687-3.436-1.26-3.436-2.519 0-3.207 2.176-3.55 4.123l-2.635 13.63zm-74.333-7.789H216.3l-1.603 7.674h-22.106l6.185-31.612h9.736l-4.696 23.938zm-120.263 7.56h-9.048l4.581-23.366h9.048l-4.581 23.366zm35.964 0h-9.048l6.07-31.498h9.049l-3.322 17.066 2.52-2.634 6.758-6.3h7.902l-8.704 8.018 4.925 15.348h-9.507l-2.519-9.392-2.864 2.978-1.26 6.414zm50.969-.115h-9.163l4.581-23.365h8.476v.114l-.687 3.207h.114c1.604-2.634 4.582-3.779 7.445-3.779 2.176 0 4.582.572 5.612 2.405 1.146 1.947.573 4.581.115 6.987l-2.749 14.546h-9.048l2.749-14.203c.229-1.374.687-3.436-1.26-3.436-2.52 0-3.207 2.176-3.551 4.009l-2.634 13.515zm88.765-10.308c-.458 2.634-1.145 5.498-4.581 5.498-1.375 0-2.291-.688-1.948-2.177.573-2.863 4.353-3.55 6.644-3.779l-.115.458zm-27.718-7.674c3.093 0 2.406 4.123 1.947 6.299-1.259 6.3-2.863 6.758-4.466 6.758-1.719 0-3.093-.458-1.833-6.758.458-2.176 1.26-6.299 4.352-6.299zM33.501 178.779c-4.925 0-3.665-5.613-2.978-9.163.687-3.436 1.603-9.049 6.299-9.049 2.291 0 3.207 1.375 3.322 3.551.114 1.833-.229 4.467-.687 6.299-.458 3.322-1.489 8.362-5.956 8.362zm119.232-7.903c.458-2.291 0-4.009-2.52-4.009-2.405 0-3.665 1.832-4.009 4.009h6.529zm167.451-8.476c0-1.26 1.031-2.176 2.291-2.176s2.29 1.031 2.29 2.176c0 1.26-1.03 2.291-2.29 2.291-1.26-.115-2.291-1.146-2.291-2.291zm.458 0c0 1.031.802 1.832 1.833 1.832a1.808 1.808 0 0 0 1.832-1.832c0-1.031-.801-1.718-1.832-1.718-1.031-.115-1.833.687-1.833 1.718zm1.375 1.145h-.344v-2.52h1.145c.229 0 .459 0 .573.115.229.115.229.344.229.573 0 .458-.343.687-.802.687l.802 1.145h-.458l-.687-1.145h-.458v1.145zm.687-2.061h-.687v.687h.458c.343 0 .802.114.802-.344 0-.343-.23-.343-.573-.343zm-234.226-1.833H79.43l1.26-6.185h9.048l-1.26 6.185z" fill="#b4121b"/></svg>