<svg viewBox="0 0 400 400" xmlns="http://www.w3.org/2000/svg" fill-rule="evenodd" clip-rule="evenodd" stroke-linejoin="round" stroke-miterlimit="1.414"><path d="M108.481 257.619H73.478v-85.766H41.631v-29.472h98.744v29.472h-31.894v85.766zm191.743 0h-50.671V142.381h57.521c18.784.316 32.119 6.227 40.007 17.736 7.63 11.403 11.393 24.644 11.286 39.725.267 37.784-19.114 57.041-58.143 57.777zm-57.432-115.238v29.472h-60.893v14.432h60.893v27.43h-60.893v14.432h60.893v29.472h-95.896V142.381h95.896zm41.764 85.766h13.716c5.557 0 9.973-1.027 13.247-3.084 3.325-2.055 5.846-4.532 7.559-7.432 1.662-3.004 2.832-6.14 3.506-9.409.52-3.32.78-6.271.78-8.855 0-2.054-.157-4.611-.468-7.669-.52-3.004-1.74-6.008-3.662-9.013-1.819-3.057-4.598-5.665-8.338-7.828-3.74-2.002-8.78-3.004-15.118-3.004h-11.222v56.294z" fill="#ed2127"/></svg>