<?xml version="1.0" encoding="UTF-8" standalone="no"?>
<svg viewBox="0 0 250 250" version="1.1" xmlns="http://www.w3.org/2000/svg" xmlns:xlink="http://www.w3.org/1999/xlink">
    <defs></defs>
    <g id="Page-1" stroke="none" stroke-width="1" fill="none" fill-rule="evenodd">
        <g id="Artboard-1">
            <path d="M235.924333,197.126153 L235.445912,196.457353 L234.683159,196.266974 L233.632364,196.266974 L233.632364,199.227744 L234.204738,199.227744 L234.204738,198.082995 L234.587969,198.082995 L235.160343,198.176949 L235.445912,198.845749 L235.445912,199.130082 L235.445912,199.226507 L235.924333,199.226507 L235.924333,199.130082 L235.924333,199.036128 L235.924333,198.557707 L235.733954,198.081759 L235.256769,197.888907 L235.637528,197.698528 L235.924333,197.126153 L235.924333,197.126153 Z M234.587969,196.647733 L235.256769,196.744158 L235.445912,197.220107 L235.160343,197.607047 L234.683159,197.698528 L234.204738,197.698528 L234.204738,196.647733 L234.587969,196.647733 L234.587969,196.647733 Z M106.876801,175.783886 C106.782848,170.342004 106.782848,166.951026 106.973227,165.28088 L106.687658,165.186926 L105.446483,165.997893 L103.346129,165.759301 C99.9094111,164.426645 96.376267,163.945752 92.8431229,164.233793 C90.6475792,164.330219 88.5459889,164.80864 86.5890375,165.759301 C84.5838731,166.61848 82.7690881,167.907868 81.098942,169.485296 C77.7104367,173.017204 76.0872673,177.599907 76.1799845,183.187665 C76.2764104,188.627075 77.9947695,192.927918 81.5279137,195.982641 C84.8694422,198.943411 89.0231735,200.281011 94.0842974,200.089396 C97.6162053,199.99297 100.672165,199.036128 103.25094,197.320241 C105.256104,196.079067 106.688894,194.457134 107.643263,192.641113 L108.407253,191.115605 L107.928832,190.8288 C106.305663,193.214723 104.299262,195.124698 101.913339,196.416558 C99.7165593,197.515566 97.2342103,197.990278 94.5602458,197.799898 C91.4090966,197.705945 88.7363683,196.274391 86.6360142,193.695616 C84.4404705,190.926462 83.2462728,187.299365 83.1510831,182.954018 C83.0089167,178.180935 83.915073,174.267032 85.8720244,171.115883 C87.9723784,167.774355 90.9331482,166.054759 94.6554354,166.006546 C97.6162053,165.86438 100.097318,166.72356 102.294098,168.537108 C104.490878,170.447083 105.827242,172.833006 106.304427,175.79254 L106.876801,175.79254 L106.876801,175.783886 L106.876801,175.783886 Z M39.3700129,172.348404 C38.9867818,170.055198 37.8432694,168.24165 35.838105,166.952262 C33.7847277,165.378542 30.8734071,164.709742 27.3884759,164.806168 L13.7343204,164.900121 L13.7343204,165.520708 L14.5922637,165.665347 L15.7382485,166.047342 L17.2662282,167.000475 C17.7434129,167.478896 17.9337922,167.95608 17.9337922,168.623644 L17.9337922,195.311368 C17.9337922,196.266974 17.1698023,197.12739 15.7382485,197.986569 L13.6378945,198.558943 L13.6378945,199.131318 L22.1839495,199.037364 L31.1107632,199.227744 C34.5956943,199.131318 37.367321,198.275847 39.4664388,196.887561 C41.6619825,195.216179 42.903157,193.115825 42.9983467,190.443096 C43.0935364,187.673942 42.1404034,185.285547 39.9436234,183.471998 C37.9384591,181.800615 35.6464895,180.941436 33.0207379,180.84501 C34.8824996,180.558205 36.4092431,179.794215 37.6504176,178.55304 C39.1796336,176.931107 39.7532441,174.924707 39.3700129,172.348404 Z M30.8251941,168.240413 C32.2579842,169.481588 33.0219741,171.201183 33.0219741,173.301537 C33.0219741,175.689933 32.4471273,177.502245 31.3011425,178.55304 C29.8683525,179.794215 27.5776191,180.177446 24.2360905,179.890641 L24.2360905,166.999239 C24.8084648,166.714906 25.477265,166.617244 26.2412549,166.52329 C28.0560399,166.524527 29.5840197,167.096901 30.8251941,168.240413 L30.8251941,168.240413 L30.8251941,168.240413 Z M36.1249103,189.77306 C36.2201,191.204614 36.0284844,192.349362 35.5512998,193.400157 C34.4040787,195.978932 32.0663686,197.410486 28.3416089,197.506912 C25.5724547,197.506912 24.2360905,196.456117 24.2360905,194.261809 L24.2360905,182.084948 L27.1968604,181.800615 C30.7287682,182.084948 33.3075431,183.374336 34.8837358,185.859157 C35.5512998,186.90748 36.0284844,188.24508 36.1249103,189.77306 Z M228.095291,165.377306 L228.095291,164.898885 L213.628933,164.898885 L213.628933,165.377306 L215.729287,166.046106 C217.065651,166.714906 217.734451,167.670511 217.734451,168.909213 L217.734451,195.308896 C217.734451,196.407904 217.065651,197.218871 215.729287,197.984097 L213.628933,198.650424 L213.628933,199.128845 L228.095291,199.128845 L228.095291,198.650424 L226.088891,197.984097 L224.752527,197.028491 C224.275342,196.552543 223.989773,195.977696 223.989773,195.308896 L223.989773,168.811551 C223.989773,167.763229 224.657337,166.807623 226.088891,166.04487 C226.854117,165.759301 227.521681,165.519472 228.095291,165.377306 Z M158.915885,165.042287 L154.427135,164.900121 L142.969759,165.042287 L142.969759,165.377306 L144.973688,166.046106 L146.310052,166.998003 C146.787236,167.478896 147.074042,167.953608 147.074042,168.622408 L147.074042,195.406558 C147.074042,196.075358 146.787236,196.553779 146.310052,197.029727 L144.973688,197.888907 L142.969759,198.651661 L142.969759,199.130082 L156.908248,199.130082 L156.908248,198.651661 L155.094699,197.985333 L153.853525,197.126153 C153.469057,196.647733 153.230465,196.170548 153.230465,195.501748 L153.230465,182.374226 C153.230465,182.087421 153.469057,181.895805 153.710122,181.895805 C154.616278,181.895805 155.761027,182.754985 157.195053,184.332414 L160.056925,188.533122 L162.730889,193.306204 L165.593997,197.316533 C166.694241,198.463754 167.836517,199.036128 168.983738,199.130082 C171.466087,199.416887 174.044862,199.416887 176.623637,199.226507 L176.623637,198.651661 C175.287273,198.463754 174.138816,197.985333 173.280872,197.316533 L171.372134,195.024563 L168.793359,190.917808 L165.930251,186.335105 C164.068489,183.373099 162.062089,181.70419 159.964207,181.225769 C162.54051,181.131815 164.640864,180.369062 166.218293,178.932563 C168.033078,177.409528 168.891021,175.499553 168.605452,173.205111 C168.319883,170.816716 167.175134,168.906741 165.215711,167.426974 C163.404634,165.997893 161.30428,165.186926 158.915885,165.042287 Z M155.479166,166.524527 C157.293951,166.61848 158.821931,167.190854 160.061869,168.386288 C161.30428,169.581722 161.971844,171.201183 162.067034,173.305246 C162.16346,175.215221 161.971844,176.646774 161.39947,177.697569 C160.825859,178.653175 159.7763,179.320739 158.247084,179.797924 L155.574356,180.082256 L153.380049,179.894349 L153.380049,166.952262 L155.479166,166.524527 Z M207.231445,169.960009 C203.79349,166.808859 199.210787,165.186926 193.577289,164.898885 L184.457624,165.041051 L177.107003,164.898885 L177.107003,165.377306 L179.110931,166.046106 L180.448531,166.951026 C180.925716,167.429447 181.116095,167.95608 181.116095,168.622408 L181.116095,195.406558 L180.448531,197.126153 L179.110931,197.985333 L177.107003,198.557707 L177.107003,199.130082 L193.38691,199.320461 C199.496356,199.416887 204.367101,197.697291 207.899009,193.975004 C209.330563,192.351835 210.477784,190.53705 211.336963,188.437932 C212.003291,186.527957 212.387758,184.56977 212.387758,182.471888 C212.387758,177.311866 210.668163,173.111158 207.231445,169.960009 Z M194.054474,166.952262 C197.396002,167.572849 199.974777,169.292445 201.978705,171.87122 C203.985106,174.543948 204.940711,177.791523 205.035901,181.705426 C205.131091,185.667542 204.462291,189.00907 203.031973,191.587845 C201.503993,194.548615 199.115598,196.457353 195.774069,197.221343 L193.195294,197.508148 L190.664732,197.411722 C189.615173,197.12739 188.851184,196.887561 188.564378,196.555015 C187.898051,195.980169 187.513583,195.029508 187.41963,193.594245 L187.41963,167.000475 C189.233179,166.476314 191.525148,166.476314 194.054474,166.952262 Z M62.7162083,164.424173 L57.5116818,164.566339 L46.914722,194.737758 C46.4375374,196.169312 45.5771216,197.126153 44.4311368,197.794954 L41.7571722,198.651661 L41.7571722,199.130082 L53.2170203,199.130082 L53.2170203,198.651661 L50.9250507,197.794954 C50.2562505,197.316533 49.8742556,196.744158 49.8742556,195.884979 L50.5430558,193.021871 L53.5038256,184.332414 L63.0994395,184.332414 L66.0614455,192.63864 L66.8241992,195.501748 C66.9206251,196.457353 66.6338198,197.221343 65.8698299,197.698528 L63.6755225,198.557707 L63.6755225,199.130082 L78.5708525,199.130082 L78.5708525,198.557707 L76.2788829,197.888907 C75.2280878,197.410486 74.4171212,196.553779 73.8917236,195.216179 L62.7162083,164.424173 Z M62.4306393,181.894569 L54.2665792,181.894569 L58.3720976,170.150388 L62.4306393,181.894569 Z M126.404283,164.566339 L121.246733,164.566339 L110.601561,194.737758 C110.12314,196.169312 109.360386,197.126153 108.117975,197.794954 L105.541673,198.557707 L105.541673,199.130082 L116.855646,199.130082 L116.855646,198.651661 L114.661339,197.794954 C113.897349,197.316533 113.514118,196.744158 113.609307,195.884979 L114.182918,193.024344 L117.143688,184.334886 L126.882704,184.334886 L130.6087,195.50422 C130.702653,196.457353 130.321895,197.223816 129.654331,197.698528 C129.177146,198.085468 128.41192,198.367328 127.457551,198.557707 L127.457551,199.130082 L142.207006,199.130082 L142.207006,198.557707 L140.012698,197.888907 C139.010116,197.410486 138.196677,196.553779 137.672516,195.216179 L126.404283,164.566339 Z M126.212668,181.894569 L118.000395,181.894569 L122.105913,170.150388 L126.212668,181.894569 Z M236.593133,195.884979 C236.114712,195.406558 235.445912,195.119753 234.777112,195.119753 C234.014358,195.119753 233.345558,195.406558 232.867137,195.884979 C232.388717,196.40914 232.10562,197.0322 232.10562,197.794954 C232.10562,198.463754 232.388717,199.130082 232.867137,199.610975 C233.441984,200.089396 234.108312,200.371256 234.777112,200.371256 C235.445912,200.371256 236.114712,200.088159 236.593133,199.610975 C237.070318,199.130082 237.355887,198.463754 237.355887,197.794954 C237.355887,197.029727 237.070318,196.40914 236.593133,195.884979 Z M234.777112,195.500511 C235.350723,195.500511 235.827907,195.693363 236.305092,196.169312 C236.78104,196.647733 236.973892,197.124917 236.973892,197.793717 C236.973892,198.462518 236.78104,198.938466 236.305092,199.319225 C235.825435,199.797645 235.350723,199.988025 234.777112,199.988025 C234.108312,199.988025 233.632364,199.797645 233.153943,199.319225 C232.675522,198.843276 232.485142,198.366092 232.485142,197.793717 C232.485142,197.124917 232.675522,196.646496 233.153943,196.169312 C233.6336,195.6946 234.108312,195.500511 234.777112,195.500511 L234.777112,195.500511 L234.777112,195.500511 Z" id="bacardi" fill="#000000"></path>
            <path d="M154.548904,62.9062367 C150.731427,59.181477 146.336631,56.2231796 141.515335,54.1240618 C136.456684,51.9272819 131.111227,50.8764868 125.47402,50.8764868 C119.839286,50.8764868 114.540806,51.9272819 109.479682,54.1228256 C104.61141,56.2231796 100.21785,59.1827132 96.397901,62.9050005 C92.5791879,66.7249498 89.6678672,71.1185097 87.518064,75.9867818 C85.4646867,81.0948823 84.4151278,86.4428114 84.4151278,91.9811199 C84.4151278,97.6158543 85.4646867,102.962547 87.518064,107.975458 C89.6653948,112.942628 92.5779517,117.380693 96.397901,121.058476 C100.21785,124.875952 104.61141,127.835486 109.479682,129.939549 C114.542042,132.133856 119.839286,133.187124 125.47402,133.187124 C131.108755,133.187124 136.454211,132.133856 141.515335,129.939549 C146.336631,127.839195 150.731427,124.875952 154.548904,121.058476 C158.368853,117.380693 161.32715,112.942628 163.333551,107.975458 C165.526622,102.962547 166.578654,97.6158543 166.578654,91.9811199 C166.578654,86.4440477 165.526622,81.0948823 163.333551,75.9867818 C161.328387,71.1197459 158.367617,66.7274223 154.548904,62.9062367 L154.548904,62.9062367 L154.548904,62.9062367 Z" id="emblem" fill="#D7C781"></path>
            <path d="M158.178474,78.2330109 C156.363689,73.9828536 153.878867,70.2593302 150.537339,66.9178016 C147.292236,63.6714628 143.614453,61.1891138 139.319792,59.3743288 C134.927468,57.4643541 130.342293,56.5099849 125.47402,56.5099849 C120.604512,56.5099849 116.070022,57.4655904 111.676462,59.375565 C107.380565,61.1903501 103.657041,63.6714628 100.409466,66.9190379 C97.0679374,70.2605664 94.5855885,73.9853261 92.7708035,78.2342471 C91.0042314,82.6253345 90.0498622,87.2092738 90.0498622,91.9823561 C90.0498622,96.8518644 91.0042314,101.434567 92.7708035,105.828127 C94.5855885,110.077048 97.0679374,113.799336 100.409466,117.1421 C103.655805,120.387203 107.381801,122.869552 111.676462,124.685573 C116.068786,126.595548 120.604512,127.548681 125.47402,127.548681 C130.342293,127.548681 134.927468,126.595548 139.319792,124.685573 C143.618162,122.869552 147.292236,120.387203 150.537339,117.1421 C153.878867,113.799336 156.363689,110.075812 158.178474,105.828127 C159.992022,101.434567 160.946392,96.8518644 160.946392,91.9823561 C160.946392,87.2068013 159.992022,82.6240983 158.178474,78.2330109 L158.178474,78.2330109 L158.178474,78.2330109 Z" id="bg" fill="#ED1B2D"></path>
            <g id="bat" transform="translate(94.159089, 65.262490)">
                <path d="M54.183942,5.28364517 L52.5595363,3.18329114 L52.1775414,2.22892191 L51.987162,1.65654762 L50.2675667,1.37097859 C49.2625121,1.65654762 47.8309582,2.99414801 46.1150716,5.47526076 C43.7279123,8.91321519 41.7227479,11.3955642 39.9079629,12.9717569 C38.6667884,14.0213158 37.2339984,14.690116 35.8024445,14.8804953 C35.4179771,14.8804953 35.1348806,14.7840694 34.8480753,14.5936901 C34.3708907,14.3093573 34.0865579,13.4489415 34.0865579,12.1113411 L36.6628603,9.20125668 L37.3316605,6.81286115 C37.3316605,6.33567654 36.8532397,6.14406095 35.9965326,6.23925063 L33.8949423,6.6224818 L32.4633885,7.09966641 L31.9862038,6.52729212 L30.840219,5.47526076 C29.9810395,4.80646056 29.3134755,4.90288647 29.025434,5.85849192 L28.8362909,7.76846661 C26.0671367,9.10483077 24.7295363,10.1556259 24.7295363,10.9196158 C24.7295363,11.4919901 25.0163415,11.9704109 25.4935262,12.207767 L28.3566338,13.1621362 L28.1662545,14.6888797 L27.0202697,14.7840694 C25.3971002,14.5924538 23.963074,14.0200795 22.8677746,12.9705206 C21.2446051,11.5834711 19.1442511,9.10235831 16.6606659,5.47402453 C15.4194914,3.66047575 13.9867013,2.22768568 12.461194,1.36974236 L11.7923939,1.0829371 L10.9332143,1.17936301 L10.4560297,1.7517373 L10.4560297,2.5169634 L9.8836554,3.37614295 L8.45086533,5.2848814 L5.29971616,9.48435325 L2.6257516,14.5924538 C1.38457712,17.2664184 0.620587243,20.4175675 0.333781983,23.9507117 C0.0482129532,27.3874299 0.237356077,30.6337687 0.906156274,33.7849179 C2.05337731,38.750852 4.15249512,43.0467498 7.20969084,46.7232965 L8.64248091,48.346466 L9.11966552,48.8248868 L9.69327604,48.7754376 C9.8836554,48.4416556 9.69327604,48.1548504 9.21609143,47.6776658 L8.26048597,46.4364913 C7.11450117,44.8133218 6.16013194,43.0467498 5.39737829,41.1849881 C3.58135706,36.5540721 3.39097771,33.9752972 4.63338842,33.4968764 C5.49256797,33.1148814 6.54212688,33.9752972 7.78453759,35.9804616 L8.64371714,37.5072051 C8.92804994,38.3663847 9.31251734,38.6544261 9.59685014,38.4615743 C9.88241917,38.3663847 9.88241917,38.0783432 9.78722949,37.7927741 L9.2148552,36.9335946 L8.45086533,35.0248561 L7.39883397,31.3965223 C6.82645968,28.3393266 7.11450117,26.5270141 8.16282384,25.8582139 C9.2148552,25.1894137 10.5512194,25.7630242 12.0779629,27.6717627 L13.3191374,29.5817373 L14.2735066,32.0653225 C14.3686963,32.7341227 14.5603119,33.0184555 14.8471171,33.0184555 C15.3243017,32.9232659 15.3243017,32.5400347 15.0387327,31.8724707 L14.8471171,29.9637323 L15.0387327,28.1489473 C15.3230655,27.4801471 15.7075329,27.0029625 16.1834813,26.8113469 C17.2342764,26.5257778 18.1886456,27.0017262 19.0478252,28.2429007 C20.0986203,29.6756908 20.5745687,31.5856655 20.479379,33.9728248 L19.8105788,34.9259578 C18.4729784,35.4983321 17.8066507,36.1671322 17.9006041,36.9311221 C17.9970301,37.8854913 18.2838353,38.6507175 18.8549734,39.1266658 C21.6241276,37.7903017 23.6762687,37.5999223 25.110295,38.4578656 C26.2562798,39.1266658 27.4022646,41.2739966 28.5470132,44.8071407 C29.692998,48.3402848 30.4569879,51.9673824 30.7437931,55.7873317 L30.8389828,57.0285062 L30.9329363,58.2696807 C30.8389828,58.750574 31.0293622,58.9384809 31.3161674,58.9384809 C31.6981624,58.9384809 31.8897779,58.750574 31.793352,58.2696807 L31.9849676,55.7873317 C32.2693004,51.8721927 33.0345265,48.2920719 34.0865579,44.9505433 C35.137353,41.4656122 36.2808654,39.4134711 37.4280864,38.5530553 C38.7632143,37.5986861 40.8635684,37.7890654 43.6351951,39.0302399 C44.3979487,38.6470088 44.7811799,37.9782086 44.8776058,36.9298859 C44.8776058,36.0707063 44.2088056,35.4031424 42.8712052,34.9247215 C42.487974,34.7331059 42.2988309,34.351111 42.202405,33.8739264 C42.202405,31.4855309 42.6808258,29.6732183 43.6351951,28.239192 C44.4931384,26.9015916 45.4499801,26.4256433 46.4983027,26.7124485 C46.9767236,26.9028279 47.3562461,27.3812487 47.5960746,28.0500489 L47.9310928,29.9600236 L47.5960746,31.868762 C47.3599548,32.536326 47.4539082,32.821895 47.8346669,32.9195572 C48.0732592,33.0147468 48.3118515,32.7291778 48.4082774,32.0616139 L49.4603088,29.4816027 L50.6532703,27.668054 C52.1800138,25.7593155 53.4224246,25.0905153 54.4732197,25.7593155 C55.5240148,26.4281157 55.8108201,28.3368542 55.3323992,31.3940499 L54.2803679,35.0223837 L53.4224246,36.8371687 L52.9440037,37.6963482 C52.8475778,38.0783432 52.8475778,38.2699587 53.0391934,38.3651484 C53.3247624,38.556764 53.7067574,38.2699587 53.9935626,37.5059689 L54.9466956,35.9792254 C56.1866339,33.8788713 57.2386652,33.0184555 58.0978448,33.4016867 C59.3390193,33.974061 59.0509778,36.5528359 57.2386652,41.0873259 C56.5723375,43.0442773 55.6154958,44.8108494 54.469511,46.4340188 L53.4199521,47.6751933 C52.9415313,48.0584245 52.8451054,48.3439935 53.0367209,48.6283263 L53.5139055,48.7717289 L53.9935626,48.2945443 L55.4238802,46.6219257 C58.5762656,42.8984022 60.6753834,38.6494812 61.7274148,33.7787367 C62.396215,30.6275876 62.6805478,27.3812487 62.396215,23.9445305 C62.1094097,20.4113864 61.248994,17.2602372 60.0065832,14.5862727 L57.3338549,9.4781721 L54.183942,5.28364517 L54.183942,5.28364517 Z" id="lo" fill="#000000"></path>
                <path d="M53.3247624,6.23677817 L51.4147877,3.7544292 L51.1304549,3.085629 L51.0352653,2.70363407 C50.9400756,2.41806504 50.6520341,2.41806504 50.3664651,2.70363407 L49.1722673,3.84961888 C47.7419497,5.37636239 46.4043493,7.76475792 45.3523179,10.9159071 L44.0147175,14.7828332 L42.869969,16.6915716 C42.4867378,17.1699925 42.0107894,17.4555615 41.3419892,17.5507512 L38.5753074,16.9783769 L35.5181117,15.9263455 C34.5649787,15.7372024 34.275701,15.7372024 34.7541219,16.0215352 C37.4280864,17.6447046 38.0968866,20.7958538 36.7605224,25.4737465 L35.2325427,30.1528754 L33.4189939,34.4500094 C32.0813935,37.8867276 31.4138296,41.372895 31.3174037,45.0964184 L31.3174037,45.2867978 L31.3174037,45.0964184 C31.3174037,43.2816334 31.0318346,41.1812794 30.5534138,38.8410968 C29.8846136,35.7851373 29.025434,33.8751626 28.0710648,33.0159831 C27.2118853,32.3471829 26.1610901,32.1568035 25.110295,32.4436088 C24.0594999,32.7291778 23.2485333,33.397978 22.7701124,34.5439628 C23.0556814,32.1555673 23.3906997,30.7252497 24.0594999,30.3432548 L25.5862434,30.3432548 L28.163782,31.4892396 L27.0177972,28.5284697 L25.8705762,25.1869412 C25.3933916,22.7045923 25.3933916,20.6042382 26.0621918,18.8846429 C26.4441867,18.0254633 27.1117507,17.2614735 27.9709302,16.7842888 L29.49891,16.2119146 L29.9760946,15.8286834 L29.784479,14.4923192 L29.5001462,14.0138984 L29.4049565,15.3514988 L28.9252994,15.6370678 L28.1625458,15.7334937 C26.730992,15.8274472 25.3933916,16.305868 24.1522171,16.9746682 C23.2460608,17.5470425 22.2904553,17.7386581 21.4312758,17.6434684 C20.7624756,17.5482787 20.1913375,17.1650476 19.8081064,16.6890992 L18.7585475,14.8755504 L17.6137989,11.1990037 C16.5617675,8.04661826 15.1314499,5.56426929 13.5082805,3.84714642 L12.3622957,2.70610652 L11.5983058,2.70610652 L11.5983058,3.08810146 L11.2163109,3.75690166 L9.49671554,5.95244537 L6.72879754,10.1519172 C4.72363318,14.0188433 3.76802772,17.8387927 3.67283805,21.5623161 C3.57641214,25.8594501 4.15002266,29.105789 5.48762305,31.491712 L5.5815765,31.3977586 C4.72363318,28.5334147 4.43559169,25.3822655 4.72363318,21.8478852 C4.9127763,19.3655362 5.48638682,16.7879975 6.53718196,14.0188433 L9.40028964,8.14675285 C8.92310502,10.4387225 8.92310502,13.1609 9.21114651,16.5011923 C9.68833113,20.6079469 10.6414641,23.9494754 12.267106,26.5270141 L12.3622957,26.5270141 C11.3102643,23.4710546 10.6414641,19.9379105 10.452321,16.0227714 C10.3571313,12.6812429 10.5487469,9.86634818 11.1211212,7.47671643 L11.8851111,5.18474681 L12.6478647,4.51594661 L13.6022339,5.46907961 L14.5553669,7.37905429 C15.4145465,9.38421865 15.8929673,11.5785261 16.1785364,13.7295656 L17.3245212,19.3643 C17.802942,21.0826591 18.5656957,22.1334542 19.4248752,22.5154491 C20.2840548,22.8986803 21.1444705,22.7058285 22.1940294,22.0382645 C23.1483987,21.3694643 23.7689859,20.5102848 24.1509808,19.4607259 C23.8654118,20.8922797 23.6737962,22.0382645 23.7677497,23.0890596 C23.8629394,24.141091 24.2461705,25.3810293 24.819781,26.7186297 L26.5381401,29.8710151 L24.819781,29.0105993 L23.9593653,28.8214562 C23.2435883,28.7262665 22.6712141,29.2034511 22.3844088,30.25301 C21.9072242,31.4954207 21.7168448,33.1173539 21.7168448,35.1225183 C21.6216551,35.5045132 21.4312758,35.7913185 21.1432343,35.8865081 C19.6164908,36.1708409 18.9489268,36.7444515 19.2332596,37.6048672 L22.7664037,36.7456877 C22.6712141,35.982934 23.0519728,35.2189442 23.67256,34.4537181 C24.4353136,33.5945385 25.2957294,33.4029229 26.3452883,33.7849179 C27.6816525,34.3572922 28.8288735,36.1720772 29.6868169,39.3232263 C30.4508067,41.8537883 30.9279913,44.8120856 31.1196069,48.1560866 L31.3112225,53.2172105 L31.5955553,48.1560866 C31.6919812,44.8133218 32.1704021,41.8537883 32.9331557,39.3232263 C33.7923352,36.1708409 34.9383201,34.3560559 36.2759205,33.7849179 C37.3267156,33.4029229 38.1858951,33.5945385 39.0438385,34.4537181 C39.7114024,35.2177079 39.9982077,35.9804616 39.903018,36.7456877 L43.4336897,37.5096776 C43.8169208,36.8408774 43.2445465,36.2685031 41.6189046,35.8865081 C41.2369097,35.7900822 41.0465304,35.503277 41.0465304,35.1225183 L40.3777302,30.25301 C39.994499,29.2022149 39.4233609,28.7262665 38.7545607,28.8214562 L37.7037656,29.2034511 L36.4625911,29.7758254 L37.6098122,27.4838558 C38.4665192,25.6690708 38.9449401,23.7590961 38.9449401,21.9467835 L38.5629452,19.3692449 C39.1353194,20.7068453 39.7076937,21.5647886 40.1861146,22.0432094 C40.6645354,22.520394 41.1404838,22.7120096 41.7140943,22.8071993 C42.2864686,22.9036252 42.8613154,22.7120096 43.3372637,22.234825 C44.1024898,21.5660248 44.7688176,20.4212762 45.3436643,18.7968706 L46.4896491,13.7357467 C46.96807,11.206421 47.4440184,9.00964109 48.0646056,7.38523544 L49.1636137,5.47526076 L49.9745803,4.52212776 L50.7373339,5.19092796 L51.5965135,7.48289758 C52.0736981,9.8712931 52.2640775,12.6861878 52.1688878,16.0289526 C52.0736981,19.9440916 51.4048979,23.4772357 50.2589131,26.5331952 L50.3541028,26.5331952 C51.9772722,23.9556566 52.9328777,20.6128918 53.4112985,16.5086097 C53.6943951,13.1670811 53.6943951,10.4449036 53.2196829,8.152934 L56.0840268,14.0250245 C57.1335857,16.7941787 57.7071962,19.3717173 57.9927653,21.8540663 C58.2795705,25.3872104 57.8988118,28.5383596 57.0396323,31.4039397 L57.1335857,31.4991294 C58.4711861,29.2071598 59.1399863,25.864395 59.0435604,21.5684973 C58.949607,18.0353532 57.8988118,14.3118297 55.9888371,10.4436674 L53.3247624,6.23677817 L53.3247624,6.23677817 Z" id="hi" fill="#D7C781"></path>
            </g>
        </g>
    </g>
</svg>