<?xml version="1.0" encoding="UTF-8" standalone="no"?>
<svg viewBox="0 0 250 250" version="1.1" xmlns="http://www.w3.org/2000/svg" xmlns:xlink="http://www.w3.org/1999/xlink">
    <defs></defs>
    <g id="Page-1" stroke="none" stroke-width="1" fill="none" fill-rule="evenodd">
        <g id="bankrate_wordmark" fill="currentColor">
            <path d="M50.0390161,135.695375 C50.0390161,138.495927 50.7887454,140.774791 52.2913278,142.533531 C53.8298347,144.314138 55.7713211,145.204442 58.1126631,145.204442 C60.6148846,145.204442 62.6360297,144.342253 64.1776605,142.624123 C65.7177294,140.843516 66.4893257,138.584957 66.4893257,135.845321 C66.4893257,133.107248 65.7177294,130.847126 64.1776605,129.066519 C62.6360297,127.329646 60.6320659,126.458086 58.1735787,126.458086 C55.8509799,126.458086 53.9094935,127.339018 52.3475575,129.097758 C50.8074886,130.878365 50.0358923,133.077571 50.0358923,135.695375 L50.0390161,135.695375 Z M66.069165,121.181866 L72.8542148,121.181866 L72.8542148,150.390069 L66.069165,150.390069 L66.069165,147.331798 C63.2889189,149.93086 60.2946877,151.230391 57.0942809,151.230391 C53.0488667,151.230391 49.7094476,149.771542 47.066652,146.852284 C44.4457234,143.873672 43.1336972,140.154703 43.1336972,135.695375 C43.1336972,131.317269 44.4457234,127.667025 47.066652,124.75089 C49.6907044,121.83007 52.9707699,120.371222 56.9130963,120.371222 C60.3149929,120.371222 63.3685777,121.770716 66.069165,124.569706 L66.069165,121.183428 L66.069165,121.181866 Z M76.7684263,121.181866 L83.5534762,121.181866 L83.5534762,123.87933 C85.9151234,121.53955 88.5766623,120.36966 91.5380929,120.36966 C94.9431133,120.36966 97.5921567,121.439586 99.4945947,123.577876 C101.134627,125.399094 101.956206,128.366772 101.956206,132.485597 L101.956206,150.388507 L95.1711559,150.388507 L95.1711559,134.097515 C95.1711559,131.220429 94.7713003,129.233646 93.9684652,128.135605 C93.1874972,127.017259 91.7661355,126.458086 89.7075039,126.458086 C87.4661258,126.458086 85.874513,127.198444 84.9342276,128.676035 C84.0126854,130.133321 83.5534762,132.679277 83.5534762,136.313902 L83.5534762,150.390069 L76.7684263,150.390069 L76.7684263,121.181866 L76.7684263,121.181866 Z M112.624228,99.7380475 L112.624228,130.628455 L122.141104,121.181866 L131.205019,121.181866 L118.506479,133.446188 L132.135933,150.390069 L123.368786,150.390069 L113.700402,138.066394 L112.622666,139.14413 L112.622666,150.390069 L105.867293,150.390069 L105.867293,99.7364856 L112.621105,99.7364856 L112.624228,99.7380475 Z M134.953665,121.181866 L141.707476,121.181866 L141.707476,123.790299 C142.949215,122.490769 144.05038,121.600465 145.009409,121.119389 C145.990305,120.622693 147.152385,120.36966 148.492526,120.36966 C150.273133,120.36966 152.134961,120.952262 154.076447,122.111218 L150.983814,128.288675 C149.703026,127.367133 148.453478,126.909486 147.232044,126.909486 C143.548999,126.909486 141.707476,129.686608 141.707476,135.245538 L141.707476,150.388507 L134.953665,150.388507 L134.953665,121.180304 L134.953665,121.181866 Z M161.515948,135.695375 C161.515948,138.495927 162.265677,140.774791 163.765136,142.533531 C165.308329,144.314138 167.248253,145.204442 169.591157,145.204442 C172.090255,145.204442 174.112962,144.342253 175.654592,142.624123 C177.196223,140.843516 177.966258,138.584957 177.966258,135.845321 C177.966258,133.107248 177.196223,130.847126 175.654592,129.066519 C174.112962,127.329646 172.112122,126.458086 169.650511,126.458086 C167.329474,126.458086 165.386425,127.339018 163.824489,129.097758 C162.285983,130.878365 161.515948,133.077571 161.515948,135.695375 L161.515948,135.695375 Z M177.546097,121.181866 L184.332709,121.181866 L184.332709,150.390069 L177.547659,150.390069 L177.547659,147.331798 C174.764289,149.93086 171.773182,151.230391 168.571213,151.230391 C164.528923,151.230391 161.18638,149.771542 158.543584,146.852284 C155.922655,143.873672 154.612191,140.154703 154.612191,135.695375 C154.612191,131.317269 155.924217,127.667025 158.545146,124.75089 C161.166074,121.83007 164.449264,120.371222 168.39159,120.371222 C171.791925,120.371222 174.842386,121.770716 177.544535,124.569706 L177.544535,121.183428 L177.546097,121.181866 Z M198.283921,127.479592 L198.283921,150.390069 L191.528548,150.390069 L191.528548,127.479592 L188.646776,127.479592 L188.646776,121.181866 L191.528548,121.181866 L191.528548,110.474795 L198.283921,110.474795 L198.283921,121.181866 L203.538273,121.181866 L203.538273,127.479592 L198.283921,127.479592 L198.283921,127.479592 Z M226.826739,131.857699 C225.886453,128.258998 223.613836,126.459648 220.012012,126.459648 C219.188872,126.459648 218.418837,126.584603 217.700347,126.834513 C216.978732,127.084422 216.322719,127.443668 215.732307,127.915372 C215.141896,128.383953 214.638952,128.949374 214.21723,129.610073 C213.795507,130.26921 213.476872,131.018939 213.256639,131.859261 L226.825177,131.859261 L226.826739,131.857699 Z M233.761734,137.376019 L212.808363,137.376019 C212.987986,139.775152 213.767392,141.683838 215.151267,143.103638 C216.530457,144.503132 218.301692,145.20288 220.46185,145.20288 C222.144055,145.20288 223.534178,144.804586 224.635342,144.004875 C225.713078,143.205164 226.947008,141.724448 228.326197,139.565853 L234.030387,142.745954 C233.149455,144.245413 232.218542,145.530886 231.239208,146.600812 C230.314982,147.622736 229.253104,148.511139 228.084097,149.240484 C226.960574,149.931802 225.735773,150.443014 224.454158,150.755562 C223.153065,151.074197 221.741075,151.233514 220.221311,151.233514 C215.857262,151.233514 212.355402,149.83402 209.714168,147.035031 C207.074496,144.215736 205.751537,140.478023 205.751537,135.82033 C205.751537,131.200124 207.032324,127.463973 209.593899,124.602506 C212.175779,121.784774 215.597981,120.374346 219.860504,120.374346 C224.163638,120.374346 227.565534,121.744163 230.067756,124.482237 C232.551234,127.200006 233.789849,130.970519 233.789849,135.790654 L233.761734,137.379142 L233.761734,137.376019 Z M236.632573,121.915976 L236.632573,125.25071 L236.045285,125.25071 L236.045285,121.915976 L235.151857,121.915976 L235.151857,121.364613 L237.526,121.364613 L237.526,121.914414 L236.632573,121.914414 L236.632573,121.915976 Z M12.526,150.390069 L12.526,104.086477 L19.4922344,104.086477 C22.5926773,104.086477 25.06366,104.327015 26.9051825,104.804968 C28.7670102,105.289168 30.3367558,106.096689 31.6191053,107.236902 C32.918636,108.416164 33.9495137,109.885945 34.7117385,111.644685 C35.4927065,113.425292 35.8831905,115.221519 35.8831905,117.042736 C35.8831905,120.36185 34.6102126,123.170211 32.0689428,125.469381 C34.5305539,126.309702 36.4736023,127.777922 37.894964,129.878726 C39.3319451,131.956101 40.0535595,134.377101 40.0535595,137.13548 C40.0535595,140.754486 38.772772,143.812757 36.211197,146.311854 C34.6711281,147.853485 32.9389412,148.923411 31.0177599,149.523195 C28.9153941,150.101111 26.2850939,150.393193 23.1221736,150.393193 L12.526,150.393193 L12.526,150.390069 Z M19.5203493,143.82369 L23.843788,143.82369 C27.0051464,143.82369 29.3261833,143.203602 30.8100224,141.964986 C32.3688345,140.624845 33.1498025,138.925459 33.1498025,136.865265 C33.1498025,134.865987 32.4000733,133.186906 30.9006147,131.828022 C29.4370807,130.487881 26.8239618,129.81781 23.06282,129.81781 L19.5203493,129.81781 L19.5203493,143.825252 L19.5203493,143.82369 Z M21.7101835,123.971484 C24.3139307,123.971484 26.2194926,123.393568 27.4315549,122.245545 C28.6420553,121.09596 29.2465245,119.402821 29.2465245,117.163005 C29.2465245,114.982543 28.626436,113.32689 27.3878207,112.196049 C26.1445197,111.068331 24.3420456,110.50291 21.9835223,110.50291 L19.5187873,110.50291 L19.5187873,123.966798 L21.7101835,123.971484 Z" id="bankrate"></path>
        </g>
    </g>
</svg>