<?xml version="1.0" encoding="UTF-8" standalone="no"?>
<svg viewBox="0 0 250 250" version="1.1" xmlns="http://www.w3.org/2000/svg" xmlns:xlink="http://www.w3.org/1999/xlink">
    <defs></defs>
    <g id="Page-1" stroke="none" stroke-width="1" fill="none" fill-rule="evenodd">
        <g id="Artboard-1">
            <path d="M178.192559,107.425032 C179.136935,107.547984 180.083927,107.673552 181.028303,107.791272 C185.763263,108.382488 189.250392,111.608016 189.770976,116.54964 C190.066584,119.340913 189.50676,121.912441 187.803743,124.180513 C186.427727,126.014329 184.562519,127.123513 182.370311,127.683337 C180.319367,128.206537 178.218719,128.337337 176.104991,128.316409 C175.027199,128.305945 173.949407,128.316409 172.821911,128.316409 L172.821911,142.170746 L167.890751,142.170746 L167.890751,141.38333 L167.890751,108.220296 C167.890751,107.953464 167.875055,107.689248 167.869823,107.422416 C171.312479,107.425032 174.752519,107.425032 178.192559,107.425032 L178.192559,107.425032 L178.192559,107.425032 Z M172.848071,111.798984 C172.832375,111.856536 172.811447,111.895776 172.811447,111.935016 C172.806215,115.845936 172.808831,119.759473 172.793135,123.670393 C172.793135,124.086337 172.989335,124.136041 173.324183,124.125577 C175.001039,124.081105 176.683127,124.115113 178.357367,123.986929 C179.547647,123.895369 180.745775,123.670393 181.789559,123.000697 C183.782951,121.721473 184.643615,119.824873 184.549439,117.535873 C184.450031,115.171008 183.257135,113.413056 181.038767,112.539312 C180.013295,112.136448 178.877951,111.908856 177.776615,111.830376 C176.154695,111.712656 174.517079,111.798984 172.848071,111.798984 L172.848071,111.798984 Z M237.055178,107.425032 C237.20429,107.901144 236.709866,107.977008 236.534594,108.249072 C235.76549,109.426272 234.970225,110.587776 234.185425,111.751896 C230.768929,116.800777 227.357665,121.852273 223.930705,126.890689 C223.637713,127.319713 223.525225,127.743505 223.527841,128.253625 C223.543537,132.635425 223.535689,137.014609 223.535689,141.393794 L223.535689,142.175978 L218.620225,142.175978 L218.620225,141.467042 C218.620225,137.064313 218.628073,132.666817 218.604529,128.264089 C218.601913,127.890001 218.463265,127.460977 218.251369,127.149673 C214.201801,121.153801 210.131304,115.173624 206.06604,109.190832 C205.665792,108.599616 205.260312,108.011016 204.860064,107.4198 L211.005048,107.4198 C214.392769,112.583784 217.780489,117.747769 221.162977,122.903905 C221.435041,122.425177 221.683561,121.912441 221.994865,121.436329 C224.197537,118.077385 226.413289,114.73152 228.618577,111.375192 C229.476625,110.067192 230.311129,108.738264 231.158713,107.4198 C233.125945,107.425032 235.087945,107.425032 237.055178,107.425032 L237.055178,107.425032 Z M198.102936,107.425032 C198.105552,117.337057 198.108168,127.246465 198.1134,137.155873 L198.1134,138.000841 L212.791777,138.000841 L212.791777,142.186442 L193.203168,142.186442 L193.203168,141.393794 L193.203168,108.222912 C193.203168,107.95608 193.192704,107.689248 193.187472,107.425032 L198.102936,107.425032 L198.102936,107.425032 Z" id="ply" fill="#000000"></path>
            <path d="M104.95502,142.32509 C104.952404,130.898401 104.947172,119.471713 104.947172,108.045024 C104.947172,107.906376 104.965484,107.770344 104.98118,107.566296 L106.775756,107.566296 C108.701132,107.566296 110.626508,107.581992 112.551884,107.555832 C113.001836,107.5506 113.226812,107.69448 113.441324,108.08688 C115.612604,112.0632 117.796964,116.031672 119.994405,119.994913 C121.851765,123.343393 123.771909,126.657865 125.576949,130.032505 C126.225717,131.246329 126.625965,132.593569 127.141317,133.880641 C127.204101,134.040217 127.282581,134.191945 127.486629,134.314897 C127.384605,133.412377 127.272117,132.512473 127.188405,131.607337 C127.099461,130.652497 126.976509,129.695041 126.973893,128.734969 C126.955581,121.833961 126.963429,114.932952 126.963429,108.029328 L126.963429,107.613384 L133.563597,107.613384 L133.563597,108.288312 C133.563597,119.388001 133.563597,130.485073 133.566213,141.587378 C133.566213,141.833282 133.579293,142.079186 133.584525,142.322474 L125.106069,142.322474 C123.444909,139.314073 121.778517,136.303057 120.125205,133.289425 C119.243613,131.683201 118.369869,130.069129 117.51182,128.444593 C115.617836,124.858057 113.726468,121.266289 111.853412,117.666673 C111.505484,116.996977 111.249116,116.280192 110.950892,115.586952 C110.843636,115.825008 110.856716,116.023824 110.872412,116.22264 C111.094772,119.317369 111.447932,122.409481 111.510716,125.509441 C111.617972,130.848697 111.539492,136.190569 111.542108,141.529826 C111.542108,141.794042 111.5735,142.058258 111.591812,142.322474 C109.378676,142.32509 107.16554,142.32509 104.95502,142.32509 L104.95502,142.32509 Z M136.537989,142.32509 C136.540605,140.381402 136.551069,138.437713 136.551069,136.494025 L136.551069,108.366792 L136.551069,107.605536 C136.752501,107.58984 136.909461,107.566296 137.066421,107.566296 C139.912629,107.566296 142.761454,107.469504 145.60243,107.595072 C148.247206,107.710176 150.91291,107.882832 153.51583,108.343248 C157.986574,109.130664 161.609734,111.354264 163.945822,115.380288 C165.198887,117.543721 165.761327,119.921665 165.983687,122.383321 C166.253135,125.334169 166.077863,128.261473 165.277367,131.133841 C164.165566,135.136321 161.884414,138.251977 158.156614,140.16689 C156.24955,141.14789 154.185526,141.728642 152.035174,141.948386 C150.962614,142.060874 149.89267,142.199522 148.82011,142.327706 C144.72607,142.32509 140.632029,142.32509 136.537989,142.32509 L136.537989,142.32509 Z M143.541022,137.048617 C146.00791,137.082625 148.409398,137.124481 150.76903,136.470481 C153.761734,135.643825 155.953942,133.794313 157.298566,131.076289 C159.294574,127.042417 159.255334,122.890825 157.30903,118.846489 C155.854534,115.832856 153.37195,113.970264 150.06271,113.441832 C148.053622,113.120064 145.997446,113.099136 143.964814,112.950024 C143.828782,112.93956 143.69275,112.981416 143.541022,112.999728 L143.541022,137.048617 L143.541022,137.048617 Z M15.6160001,107.547984 C19.7702083,107.558448 23.9270325,107.52444 28.0812406,107.58984 C30.0170807,107.621232 31.9607688,107.809584 33.7684249,108.602232 C36.732353,109.902384 38.4772251,112.1286 38.8408491,115.388136 C38.9978091,116.813857 38.8827051,118.210801 38.3935131,119.552809 C37.5590091,121.836577 35.767049,123.045169 33.5460649,123.741025 C33.1667449,123.858745 32.7821928,123.963385 32.3740968,124.183129 C32.6356968,124.253761 32.8946809,124.345321 33.1588969,124.392409 C36.664337,125.041177 39.3849771,127.275241 39.9814252,130.898401 C40.5988012,134.662825 39.6021051,137.877889 36.394889,140.156426 C34.6212409,141.417338 32.5964568,142.081802 30.4042487,142.191674 C29.9804567,142.212602 29.5566647,142.278002 29.1354887,142.32509 L15.6186161,142.32509 C15.6160001,130.730977 15.6160001,119.142097 15.6160001,107.547984 L15.6160001,107.547984 Z M22.6399604,137.189881 C24.7589205,137.056465 26.8020166,137.006761 28.8268007,136.773937 C30.1609607,136.619593 31.3721688,136.002217 32.2223688,134.903497 C34.5506089,131.900329 32.6749368,127.463593 28.7954087,126.982249 C26.8386406,126.741577 24.8374005,126.833137 22.8570884,126.778201 C22.7864564,126.778201 22.7105924,126.830521 22.6399604,126.856681 L22.6399604,137.189881 L22.6399604,137.189881 L22.6399604,137.189881 Z M22.6922804,112.908168 C22.6478084,113.046816 22.6138004,113.104368 22.6138004,113.159304 C22.6111844,115.861632 22.6138004,118.563961 22.6007204,121.266289 C22.5981044,121.650841 22.7943044,121.695313 23.1003764,121.692697 C24.2880405,121.684849 25.4861685,121.779025 26.6607526,121.658689 C27.6993046,121.551433 28.7640167,121.334305 29.7267047,120.941905 C31.3172328,120.293137 32.0915688,118.775857 31.9503048,117.017905 C31.7933448,115.09776 30.8411208,113.849928 29.1773447,113.311032 C27.0348406,112.617792 24.8452485,113.067744 22.6922804,112.908168 L22.6922804,112.908168 Z M41.5457932,142.32509 C41.5431772,136.386769 41.5379452,130.448449 41.5353292,124.510129 L41.5353292,108.353712 L41.5353292,107.600304 C41.7524572,107.584608 41.9120332,107.566296 42.0716092,107.566296 C46.1656494,107.566296 50.2623056,107.521824 54.3563458,107.58984 C56.3104979,107.623848 58.2698819,107.809584 60.12201,108.547296 C63.1879621,109.766352 64.8909782,112.047504 65.3697062,115.278264 C65.6234583,116.989129 65.4691142,118.663369 64.8229622,120.277441 C63.9649142,122.425177 62.3743861,123.780265 60.20049,124.483969 C59.700834,124.646161 59.190714,124.771729 58.725066,124.902529 C59.29797,125.339401 59.944122,125.729185 60.469938,126.247153 C61.6340581,127.395577 62.1598741,128.928553 62.7720181,130.393513 C64.4044022,134.309665 66.0106263,138.238897 67.6273143,142.162898 C67.6508583,142.217834 67.6900983,142.270154 67.7214903,142.322474 L59.980746,142.322474 C59.248266,140.44157 58.5210179,138.560665 57.7806899,136.684993 C56.9775779,134.657593 56.2058578,132.614497 55.3347298,130.621105 C54.8847778,129.587785 54.1967698,128.721889 53.0588097,128.274553 C51.5886177,127.693801 50.0870336,128.020801 48.5305135,127.908313 L48.5305135,128.708809 C48.5383615,133.244953 48.5462095,137.786329 48.5540575,142.32509 L41.5457932,142.32509 L41.5457932,142.32509 Z M48.5540575,112.879392 L48.5540575,122.519353 C50.0739536,122.519353 51.5467616,122.579521 53.0117217,122.501041 C54.3511138,122.430409 55.6591138,122.058937 56.6584259,121.119793 C58.1495459,119.717617 58.3666739,117.915193 57.8722499,116.031672 C57.3830579,114.171696 55.8919378,113.329344 54.1653778,113.106984 C52.3367937,112.871544 50.4637376,112.944792 48.5540575,112.879392 L48.5540575,112.879392 Z M68.5795384,142.32509 C69.4768264,140.046553 70.3819625,137.773249 71.2714025,135.492097 C74.8396266,126.328249 78.4052348,117.161785 81.970843,107.997936 C82.023163,107.86452 82.080715,107.73372 82.143499,107.587224 L89.8947073,107.587224 C91.2524113,110.982792 92.6101154,114.370512 93.9625875,117.758233 C97.1645716,125.773657 100.36394,133.789081 103.560692,141.80189 C103.628708,141.97193 103.670564,142.152434 103.7255,142.32509 L96.1050916,142.32509 C95.6603715,141.038018 95.1973395,139.758793 94.7787795,138.461257 C94.6348995,138.019153 94.4125395,137.877889 93.9468915,137.880505 C90.2871073,137.898817 86.6273231,137.890969 82.967539,137.890969 C81.2697549,137.890969 79.5745868,137.877889 77.8768028,137.906665 C77.6701388,137.909281 77.3483708,138.071473 77.2829707,138.238897 C76.7702347,139.591369 76.3045867,140.959538 75.8258587,142.32509 L68.5795384,142.32509 L68.5795384,142.32509 Z M85.9210031,114.242328 C85.8739151,114.242328 85.8268271,114.244944 85.7797391,114.24756 C83.600611,120.384697 81.4188669,126.521833 79.2214268,132.713905 L92.6702834,132.713905 C90.4048273,126.513985 88.1629152,120.376849 85.9210031,114.242328 L85.9210031,114.242328 L85.9210031,114.242328 Z" id="brand" fill="#DF4131"></path>
        </g>
    </g>
</svg>