<?xml version="1.0" encoding="UTF-8" standalone="no"?>
<svg viewBox="0 0 250 250" version="1.1" xmlns="http://www.w3.org/2000/svg" xmlns:xlink="http://www.w3.org/1999/xlink">
    <defs>
        <linearGradient x1="49.9056268%" y1="61.3900838%" x2="50.2680315%" y2="17.8532266%" id="linearGradient-1">
            <stop stop-color="#FFFFFF" offset="0%"></stop>
            <stop stop-color="#FFFFFE" offset="0.21%"></stop>
            <stop stop-color="#FDE5B2" offset="22.38%"></stop>
            <stop stop-color="#FBCF73" offset="43.14%"></stop>
            <stop stop-color="#F9BE41" offset="61.85%"></stop>
            <stop stop-color="#F8B21E" offset="78.15%"></stop>
            <stop stop-color="#F7AB08" offset="91.43%"></stop>
            <stop stop-color="#F7A800" offset="100%"></stop>
        </linearGradient>
        <linearGradient x1="51.715418%" y1="56.941044%" x2="49.562025%" y2="-1.30725659%" id="linearGradient-2">
            <stop stop-color="#F7CE3C" offset="0%"></stop>
            <stop stop-color="#D18A00" offset="100%"></stop>
        </linearGradient>
    </defs>
    <g id="Page-1" stroke="none" stroke-width="1" fill="none" fill-rule="evenodd">
        <g id="wordmark" transform="translate(13.000000, 207.062500)" fill="#000000">
            <path d="M21.7378125,12.8334375 L17.3165625,15.1846875 C16.486875,14.355 15.665625,13.7784375 14.855625,13.4578125 C14.0428125,13.1371875 13.0921875,12.9740625 12.0009375,12.9740625 C10.0153125,12.9740625 8.4065625,13.5703125 7.1803125,14.76 C5.9540625,15.9525 5.3409375,17.476875 5.3409375,19.3359375 C5.3409375,21.1471875 5.92875,22.6209375 7.1128125,23.765625 C8.296875,24.9103125 9.8465625,25.48125 11.7703125,25.48125 C14.146875,25.48125 15.9975,24.6684375 17.3221875,23.04 L21.51,25.8890625 C19.243125,28.8225 16.0396875,30.2878125 11.9025,30.2878125 C8.1815625,30.2878125 5.265,29.1909375 3.1584375,27 C1.0546875,24.8090625 0,22.2440625 0,19.305 C0,17.26875 0.511875,15.3928125 1.535625,13.68 C2.559375,11.9671875 3.9909375,10.614375 5.8246875,9.635625 C7.6584375,8.6540625 9.70875,8.1675 11.9784375,8.1675 C14.079375,8.1675 15.96375,8.5753125 17.6371875,9.3825 C19.3078125,10.1896875 20.6746875,11.3428125 21.7378125,12.8334375 L21.7378125,12.8334375 Z" id="Shape"></path>
            <path d="M23.2228125,8.701875 L28.485,8.701875 L28.485,18.9028125 C28.485,20.885625 28.6228125,22.2665625 28.90125,23.0371875 C29.1825,23.810625 29.6296875,24.4125 30.2484375,24.84 C30.864375,25.2675 31.62375,25.4840625 32.529375,25.4840625 C33.4321875,25.4840625 34.1971875,25.273125 34.83,24.8484375 C35.46,24.429375 35.9296875,23.8078125 36.2334375,22.9921875 C36.4584375,22.381875 36.5709375,21.076875 36.5709375,19.0771875 L36.5709375,8.7046875 L41.8359375,8.7046875 L41.8359375,17.6203125 C41.8359375,21.29625 41.5434375,23.8078125 40.96125,25.16625 C40.246875,26.8171875 39.1978125,28.0828125 37.805625,28.96875 C36.41625,29.8490625 34.65,30.2934375 32.5125,30.2934375 C30.189375,30.2934375 28.3078125,29.7759375 26.87625,28.74375 C25.441875,27.7115625 24.4321875,26.2771875 23.85,24.429375 C23.43375,23.158125 23.225625,20.835 23.225625,17.4684375 L23.225625,8.701875 L23.2228125,8.701875 Z" id="Shape"></path>
            <path d="M82.5440625,16.6359375 C83.1459375,15.3309375 83.7984375,14.4225 84.5071875,13.9078125 C85.6321875,13.0809375 86.94,12.6703125 88.430625,12.6703125 C89.803125,12.6703125 91.0096875,13.03875 92.0503125,13.775625 C93.0909375,14.5096875 93.7884375,15.4659375 94.14,16.63875 L82.5440625,16.63875 L82.5440625,16.6359375 Z M99.928125,19.7465625 C99.928125,16.2675 98.8846875,13.4690625 96.800625,11.35125 C94.7165625,9.230625 92.0053125,8.1675 88.678125,8.1675 C85.5421875,8.1675 82.935,9.230625 80.85375,11.35125 C78.7725,13.471875 77.7346875,16.1353125 77.7346875,19.3471875 C77.7346875,22.4775 78.7753125,25.0846875 80.859375,27.1659375 C82.940625,29.2471875 85.6378125,30.2878125 88.9509375,30.2878125 C91.085625,30.2878125 92.930625,29.908125 94.483125,29.1571875 C96.035625,28.400625 97.3659375,27.23625 98.4796875,25.66125 L94.0134375,23.5715625 C92.5903125,24.946875 90.8859375,25.633125 88.9059375,25.633125 C87.249375,25.633125 85.8825,25.194375 84.8165625,24.31125 C83.7478125,23.4309375 83.0896875,22.246875 82.8421875,20.750625 L99.9084375,20.750625 L99.928125,19.7465625 L99.928125,19.7465625 Z" id="Shape"></path>
            <path d="M74.2078125,8.701875 L68.855625,21.1246875 L63.8071875,9.241875 L60.688125,14.6053125 L67.123125,29.7534375 L70.47,29.7534375 L79.5346875,8.701875 L74.2078125,8.701875 Z" id="Shape"></path>
            <path d="M52.396875,3.0796875 C52.396875,3.0796875 51.519375,2.9503125 51.1565625,3.380625 C50.473125,4.185 50.9371875,5.0371875 50.9371875,5.0371875 L53.049375,7.1184375 C51.4434375,7.785 48.583125,9.45 46.6621875,11.4946875 C44.4571875,13.8403125 43.14375,16.57125 43.1465625,20.3034375 L43.1521875,29.77875 L48.9853125,29.773125 L48.976875,20.2978125 C48.9571875,18.3684375 49.854375,16.7090625 51.2803125,15.0553125 C52.1240625,14.0709375 54.174375,12.92625 55.614375,12.3721875 L55.6284375,12.4003125 L55.8815625,15.7415625 C55.8815625,15.7415625 56.2275,16.6471875 57.2878125,16.644375 C57.8503125,16.644375 58.3171875,15.8934375 58.3171875,15.8934375 L64.670625,4.9725 L52.396875,3.0796875 L52.396875,3.0796875 Z" id="Shape"></path>
            <g id="Group" transform="translate(112.500000, 0.000000)">
                <path d="M16.7934375,29.8265625 L16.8046875,27.028125 L16.74,27.028125 C16.1803125,28.1728125 15.3,28.9996875 14.0990625,29.50875 C12.9009375,30.015 11.581875,30.2709375 10.1446875,30.2709375 C8.5471875,30.2709375 7.1521875,29.9784375 5.9653125,29.390625 C4.7784375,28.8028125 3.796875,28.0209375 3.009375,27.0309375 C2.2190625,26.04375 1.6284375,24.89625 1.2290625,23.59125 C0.8296875,22.2834375 0.63,20.896875 0.63,19.4315625 C0.63,17.96625 0.8240625,16.576875 1.2121875,15.271875 C1.5975,13.9640625 2.1853125,12.825 2.97,11.851875 C3.751875,10.8759375 4.741875,10.1053125 5.92875,9.5315625 C7.115625,8.9578125 8.49375,8.6709375 10.0659375,8.6709375 C10.5975,8.6709375 11.176875,8.724375 11.784375,8.83125 C12.4003125,8.938125 13.010625,9.118125 13.62375,9.3684375 C14.236875,9.61875 14.81625,9.95625 15.3646875,10.366875 C15.9075,10.7775 16.363125,11.295 16.7428125,11.9053125 L16.7990625,11.9053125 L16.7990625,1.2796875 L20.210625,1.2796875 L20.210625,29.8265625 L16.7934375,29.8265625 L16.7934375,29.8265625 Z M4.5815625,22.5 C4.8346875,23.4196875 5.22,24.2409375 5.7403125,24.9609375 C6.2634375,25.68375 6.9271875,26.2575 7.74,26.6821875 C8.5528125,27.1096875 9.5034375,27.3234375 10.5975,27.3234375 C11.745,27.3234375 12.7125,27.095625 13.5140625,26.645625 C14.31,26.1928125 14.9653125,25.5965625 15.46875,24.8625 C15.9721875,24.1284375 16.3434375,23.293125 16.5740625,22.359375 C16.7990625,21.425625 16.90875,20.4778125 16.90875,19.51875 C16.90875,18.50625 16.7878125,17.521875 16.5515625,16.5740625 C16.3096875,15.62625 15.93,14.79375 15.4096875,14.07375 C14.8921875,13.3509375 14.2171875,12.7715625 13.393125,12.33 C12.5690625,11.89125 11.570625,11.671875 10.400625,11.671875 C9.253125,11.671875 8.28,11.8996875 7.4840625,12.3525 C6.6825,12.8053125 6.0440625,13.4071875 5.5659375,14.1553125 C5.0821875,14.9034375 4.73625,15.7528125 4.528125,16.7175 C4.314375,17.6765625 4.2046875,18.66375 4.2046875,19.6790625 C4.2046875,20.638125 4.33125,21.5775 4.5815625,22.5 L4.5815625,22.5 Z" id="Shape"></path>
                <path d="M39.2878125,28.5103125 C37.738125,29.6803125 35.7890625,30.268125 33.4434375,30.268125 C31.7840625,30.268125 30.3496875,29.998125 29.1375,29.4665625 C27.9253125,28.935 26.8959375,28.186875 26.071875,27.225 C25.2421875,26.2659375 24.620625,25.12125 24.21,23.7853125 C23.799375,22.4521875 23.563125,21.0009375 23.506875,19.4259375 C23.506875,17.8509375 23.74875,16.41375 24.226875,15.10875 C24.710625,13.798125 25.38,12.6675 26.2490625,11.7084375 C27.1125,10.7465625 28.1390625,10.0040625 29.3259375,9.466875 C30.5071875,8.9353125 31.809375,8.668125 33.22125,8.668125 C35.055,8.668125 36.5821875,9.0478125 37.7915625,9.8071875 C39.0065625,10.5665625 39.976875,11.5340625 40.708125,12.706875 C41.445,13.8796875 41.9484375,15.159375 42.2296875,16.5459375 C42.5109375,17.9296875 42.620625,19.2515625 42.57,20.503125 L27.09,20.503125 C27.061875,21.4115625 27.1715625,22.2721875 27.4078125,23.090625 C27.6496875,23.90625 28.040625,24.62625 28.5721875,25.2534375 C29.109375,25.8834375 29.7928125,26.3840625 30.6225,26.758125 C31.4521875,27.1321875 32.4309375,27.3178125 33.5503125,27.3178125 C34.9959375,27.3178125 36.1828125,26.9859375 37.1053125,26.319375 C38.0278125,25.6528125 38.638125,24.6375 38.9278125,23.27625 L42.28875,23.27625 C41.833125,25.59375 40.831875,27.3375 39.2878125,28.5103125 L39.2878125,28.5103125 Z M38.44125,15.2296875 C38.1403125,14.5096875 37.72125,13.8909375 37.2009375,13.370625 C36.6834375,12.8503125 36.0703125,12.4396875 35.3615625,12.133125 C34.6528125,11.829375 33.87375,11.6746875 33.0215625,11.6746875 C32.1384375,11.6746875 31.3396875,11.829375 30.6309375,12.133125 C29.9221875,12.4396875 29.3175,12.8615625 28.8084375,13.393125 C28.3021875,13.9246875 27.9028125,14.5434375 27.6103125,15.249375 C27.315,15.9553125 27.1434375,16.7090625 27.0871875,17.505 L38.9840625,17.505 C38.930625,16.70625 38.750625,15.946875 38.44125,15.2296875 L38.44125,15.2296875 Z" id="Shape"></path>
                <path d="M54.883125,9.1321875 L54.883125,12.1359375 L50.7796875,12.1359375 L50.7796875,24.96375 C50.7796875,25.3659375 50.8134375,25.6865625 50.878125,25.925625 C50.9428125,26.1646875 51.069375,26.3475 51.2578125,26.4853125 C51.4434375,26.6175 51.7021875,26.7046875 52.03125,26.7440625 C52.3603125,26.78625 52.7934375,26.803125 53.3278125,26.803125 L54.883125,26.803125 L54.883125,29.8040625 L52.284375,29.8040625 C51.4096875,29.8040625 50.65875,29.745 50.0315625,29.626875 C49.404375,29.50875 48.9009375,29.2865625 48.515625,28.96875 C48.1303125,28.6509375 47.84625,28.1953125 47.6578125,27.6075 C47.4721875,27.0225 47.3765625,26.251875 47.3765625,25.2928125 L47.3709375,12.13875 L43.8553125,12.13875 L43.8553125,9.135 L47.3709375,9.135 L47.3709375,2.9559375 L50.776875,2.9559375 L50.776875,9.135 L54.883125,9.135 L54.883125,9.1321875 Z" id="Shape"></path>
                <path d="M61.745625,9.1715625 L61.745625,13.5253125 L61.8215625,13.5253125 C62.634375,11.84625 63.6384375,10.60875 64.8421875,9.81 C66.0403125,9.01125 67.55625,8.6371875 69.395625,8.6934375 L69.395625,12.27375 C68.04,12.27375 66.875625,12.4565625 65.919375,12.8334375 C64.9575,13.2075 64.1896875,13.753125 63.601875,14.4703125 C63.0140625,15.193125 62.5921875,16.0621875 62.3221875,17.0915625 C62.0521875,18.1209375 61.92,19.2965625 61.92,20.6296875 L61.92,29.829375 L58.5140625,29.829375 L58.5140625,9.174375 L61.745625,9.174375 L61.745625,9.1715625 Z" id="Shape"></path>
                <path d="M70.7540625,15.2465625 C71.1759375,13.9275 71.814375,12.78 72.6665625,11.806875 C73.524375,10.83375 74.5734375,10.06875 75.825,9.5090625 C77.0709375,8.949375 78.5109375,8.668125 80.1309375,8.668125 C81.7846875,8.668125 83.2303125,8.949375 84.465,9.5090625 C85.6996875,10.06875 86.7459375,10.8365625 87.5953125,11.806875 C88.453125,12.78 89.08875,13.9275 89.5134375,15.2465625 C89.9409375,16.5684375 90.151875,17.98875 90.151875,19.5075 C90.151875,21.0290625 89.94375,22.4409375 89.5134375,23.74875 C89.0915625,25.0565625 88.453125,26.195625 87.5953125,27.16875 C86.743125,28.1446875 85.6996875,28.90125 84.465,29.4496875 C83.2303125,29.998125 81.7846875,30.2709375 80.1309375,30.2709375 C78.5109375,30.2709375 77.0709375,29.9953125 75.825,29.4496875 C74.5734375,28.9040625 73.524375,28.1446875 72.6665625,27.16875 C71.814375,26.195625 71.17875,25.0565625 70.7540625,23.74875 C70.3265625,22.4409375 70.11,21.0290625 70.11,19.5075 C70.11,17.98875 70.32375,16.5684375 70.7540625,15.2465625 L70.7540625,15.2465625 Z M74.1909375,22.8571875 C74.525625,23.833125 74.986875,24.6459375 75.5690625,25.2984375 C76.156875,25.9509375 76.843125,26.454375 77.6278125,26.8003125 C78.4125,27.14625 79.2478125,27.320625 80.128125,27.320625 C81.01125,27.320625 81.8409375,27.14625 82.6340625,26.8003125 C83.413125,26.454375 84.105,25.9509375 84.6871875,25.2984375 C85.275,24.6459375 85.73625,23.833125 86.0709375,22.8571875 C86.4,21.8840625 86.5715625,20.7703125 86.5715625,19.5159375 C86.5715625,18.2615625 86.4,17.145 86.0709375,16.171875 C85.73625,15.19875 85.275,14.3775 84.6871875,13.7109375 C84.105,13.044375 83.413125,12.538125 82.6340625,12.1921875 C81.84375,11.84625 81.0140625,11.6690625 80.128125,11.6690625 C79.250625,11.6690625 78.4153125,11.8434375 77.6278125,12.1921875 C76.8403125,12.5409375 76.156875,13.044375 75.5690625,13.7109375 C74.986875,14.3775 74.525625,15.19875 74.1909375,16.171875 C73.85625,17.1478125 73.6903125,18.2615625 73.6903125,19.5159375 C73.693125,20.7703125 73.85625,21.886875 74.1909375,22.8571875 L74.1909375,22.8571875 Z" id="Shape"></path>
                <path d="M93.56625,5.43375 L93.56625,1.276875 L96.9721875,1.276875 L96.9721875,5.43375 L93.56625,5.43375 L93.56625,5.43375 Z M96.9721875,9.1434375 L96.9721875,29.8040625 L93.56625,29.8040625 L93.56625,9.1434375 L96.9721875,9.1434375 L96.9721875,9.1434375 Z" id="Shape"></path>
                <path d="M111.029063,9.1321875 L111.029063,12.1359375 L106.93125,12.1359375 L106.93125,24.96375 C106.93125,25.3659375 106.965,25.6865625 107.029687,25.925625 C107.094375,26.1646875 107.220937,26.3475 107.40375,26.4853125 C107.595,26.6175 107.848125,26.7046875 108.182812,26.7440625 C108.511875,26.78625 108.942187,26.803125 109.47375,26.803125 L111.029062,26.803125 L111.029062,29.8040625 L108.435937,29.8040625 C107.558437,29.8040625 106.804687,29.745 106.183125,29.626875 C105.555937,29.5059375 105.0525,29.2865625 104.667187,28.96875 C104.27625,28.6509375 103.992187,28.1953125 103.80375,27.6075 C103.62375,27.0225 103.528125,26.251875 103.528125,25.2928125 L103.516875,12.13875 L100.00125,12.13875 L100.00125,9.135 L103.516875,9.135 L103.516875,2.9559375 L106.928437,2.9559375 L106.928437,9.135 L111.029063,9.135 L111.029063,9.1321875 Z" id="Shape"></path>
            </g>
            <rect id="Rectangle-path" x="105.170625" y="0.0225" width="1.1925" height="29.82375"></rect>
        </g>
        <g id="sign" transform="translate(29.875000, 13.000000)">
            <path d="M185.20875,87.5165625 C187.83,90.1434375 187.83,94.393125 185.203125,97.02 L99.646875,182.567813 C97.025625,185.200313 92.7703125,185.200313 90.1434375,182.567813 L4.595625,97.02 C1.96875,94.393125 1.96875,90.1434375 4.595625,87.5165625 L90.1434375,1.96875 C92.7703125,-0.6553125 97.025625,-0.6553125 99.646875,1.96875 L185.20875,87.5165625 L185.20875,87.5165625 Z" id="Shape" fill="url(#linearGradient-1)"></path>
            <path d="M185.191875,87.5221875 L180.599063,82.8365625 C179.825625,82.8675 169.017188,77.394375 141.4575,87.823125 C116.687813,97.2 95.743125,97.4475 72.646875,97.8384375 C42.519375,98.341875 19.040625,89.0015625 8.499375,83.7309375 L4.5759375,87.5221875 C1.9490625,90.1546875 1.9490625,94.4071875 4.5759375,97.03125 L90.129375,182.579063 C92.750625,185.1975 97.0059375,185.1975 99.624375,182.579063 L185.183438,97.03125 C187.810313,94.4071875 187.810313,90.1546875 185.191875,87.5221875 L185.191875,87.5221875 Z" id="Shape" fill="url(#linearGradient-2)"></path>
            <path d="M92.9953125,48.0178125 C92.9953125,48.0178125 90.0675,47.5875 88.8525,49.0246875 C86.5546875,51.733125 88.115625,54.57375 88.115625,54.57375 L95.1946875,61.5571875 C89.8171875,63.79875 80.2321875,69.373125 73.8028125,76.21875 C66.42,84.076875 62.0128125,93.2146875 62.038125,105.730313 L62.0578125,137.46375 L81.5934375,137.4525 L81.5625,105.705 C81.500625,99.2503125 84.504375,93.6759375 89.285625,88.1409375 C92.1121875,84.8475 98.971875,81.005625 103.80375,79.160625 L103.834688,79.2478125 L104.698125,90.43875 C104.698125,90.43875 105.856875,93.4734375 109.397813,93.4678125 C111.287813,93.4678125 112.84875,90.9478125 112.84875,90.9478125 L134.13375,54.37125 L92.9953125,48.0178125 L92.9953125,48.0178125 Z" id="Shape" fill="#000000"></path>
            <path d="M89.42625,7.9621875 L10.49625,86.8865625 C9.073125,88.3096875 8.285625,90.2109375 8.285625,92.2275 C8.285625,94.2496875 9.073125,96.1396875 10.49625,97.5684375 L89.42625,176.492813 C90.849375,177.921562 92.745,178.703438 94.7671875,178.703438 C96.78375,178.703438 98.679375,177.921562 100.096875,176.492813 L179.0325,97.5684375 C181.96875,94.6209375 181.96875,89.8340625 179.0325,86.8865625 L100.099688,7.9621875 C98.6765625,6.53625 96.7809375,5.754375 94.75875,5.754375 C92.745,5.7515625 90.849375,6.5334375 89.42625,7.9621875 L89.42625,7.9621875 Z M91.3275,174.58875 L12.4059375,95.65875 C11.48625,94.7390625 10.9828125,93.5240625 10.9828125,92.2275 C10.9828125,90.9365625 11.48625,89.713125 12.4059375,88.79625 L91.3275,9.86625 C92.2415625,8.9465625 93.4678125,8.44875 94.75875,8.44875 C96.0553125,8.44875 97.27875,8.9465625 98.1928125,9.86625 L177.12,88.79625 C179.018438,90.6834375 179.018438,93.7659375 177.12,95.65875 L98.195625,174.58875 C97.2815625,175.502813 96.058125,176.00625 94.7615625,176.00625 C93.4678125,176.00625 92.2415625,175.502813 91.3275,174.58875 L91.3275,174.58875 Z" id="Shape" fill="#000000"></path>
        </g>
        <g id="Artboard-1"></g>
    </g>
</svg>