<?xml version="1.0" encoding="UTF-8" standalone="no"?>
<svg viewBox="0 0 250 250" version="1.1" xmlns="http://www.w3.org/2000/svg" xmlns:xlink="http://www.w3.org/1999/xlink">
    <defs></defs>
    <g id="Page-1" stroke="none" stroke-width="1" fill="none" fill-rule="evenodd">
        <g id="Artboard-1" fill="#000000">
            <path d="M94.1974318,102.348046 L106.553524,102.348046 L106.553524,117.9826 L118.741717,117.9826 L118.741717,102.348046 L131.097809,102.348046 L131.097809,147.14979 L118.741717,147.14979 L118.741717,130.338632 L106.553524,130.338632 L106.553524,147.14979 L94.1974318,147.14979 L94.1974318,102.348046 L94.1974318,102.348046 Z M134.29232,102.348046 L146.648413,102.348046 L146.648413,135.592154 L160.265331,135.592154 L160.265331,147.14979 L134.29232,147.14979 L134.29232,102.348046 L134.29232,102.348046 Z M162.786983,102.348046 L187.751333,102.348046 L187.751333,112.644874 L175.143076,112.644874 L175.143076,119.537537 L187.751333,119.537537 L187.751333,129.834549 L175.143076,129.834549 L175.143076,136.85298 L187.751333,136.85298 L187.751333,147.14979 L162.786983,147.14979 L162.786983,102.348046 L162.786983,102.348046 Z M190.52515,102.348046 L202.881243,102.348046 C205.164564,102.398919 207.438452,102.561286 209.689702,102.979339 C216.750326,104.485413 222.466489,112.098034 220.617068,119.376172 C219.776937,123.642419 216.666691,126.905036 213.220014,129.414739 C217.514368,135.280687 221.71188,141.216818 225.912537,147.14979 L212.632048,147.14979 C209.274038,142.829674 206.075754,138.350688 202.881243,133.945095 L202.881243,147.14979 L190.52515,147.14979 L190.52515,102.348046 L190.52515,102.348046 Z M202.881243,112.705494 L202.881243,121.446884 C204.910512,121.355762 207.252944,121.7974 208.765306,120.212786 C210.614727,118.790283 210.614727,115.611684 208.849571,114.105922 C207.253573,112.597459 204.977169,112.821955 202.881243,112.705494 L202.881243,112.705494 Z M92.4329045,124.328736 C92.4329045,111.445611 82.0758967,101 69.305398,101 C56.5342704,101 46.1772627,111.445611 46.1772627,124.328736 C46.1772627,137.211862 56.5342704,147.657526 69.305398,147.657526 C82.0758967,147.657526 92.4329045,137.211862 92.4329045,124.328736 L92.4329045,124.328736 Z M69.305398,112.860503 C75.0221896,112.860503 79.6586327,117.995428 79.6586327,124.328484 C79.6586327,130.661851 75.0221896,135.796965 69.305398,135.796965 C63.5879776,135.796965 58.9515344,130.661851 58.9515344,124.328484 C58.9515344,117.995428 63.5879776,112.860503 69.305398,112.860503 L69.305398,112.860503 Z M52.7580815,102.366471 C46.9325005,109.501613 40.9949857,116.547585 35.1907853,123.698194 L55.3639977,147.14979 L39.0568984,147.14979 L25.3557153,131.100093 L25.3557153,147.14979 L13,147.14979 L13,102.348046 L25.3557153,102.348046 L25.3557153,115.572631 L37.0659885,102.366471 L52.7580815,102.366471 L52.7580815,102.366471 Z M233.448565,140.639039 C234.703731,140.639039 235.840046,141.148023 236.66257,141.970421 C237.485094,142.792633 237.993826,143.929431 237.993826,145.184411 C237.993826,146.439638 237.485094,147.57622 236.66257,148.398623 C235.840046,149.220784 234.703731,149.73 233.448565,149.73 C232.193398,149.73 231.056454,149.220784 230.234559,148.398623 C229.412036,147.57622 228.902675,146.439638 228.902675,145.184411 C228.902675,143.929431 229.412036,142.792633 230.234559,141.970421 C231.056454,141.148023 232.193398,140.639039 233.448565,140.639039 Z M236.032471,142.600771 C235.370931,141.939482 234.457225,141.530233 233.448565,141.530233 C232.439275,141.530233 231.52557,141.939482 230.864658,142.600771 C230.203117,143.261809 229.794371,144.175565 229.794371,145.184411 C229.794371,146.193505 230.203117,147.107049 230.864658,147.768308 C231.52557,148.42933 232.439275,148.838565 233.448565,148.838565 C234.457225,148.838565 235.370931,148.42933 236.032471,147.768308 C236.693383,147.107049 237.102759,146.193505 237.102759,145.184411 C237.102759,144.175565 236.693383,143.261809 236.032471,142.600771 L236.032471,142.600771 Z M235.353952,147.489752 L234.475462,147.489752 L233.759212,145.59439 L232.590826,145.59439 L232.590826,147.489752 L231.759498,147.489752 L231.759498,142.879287 L233.759212,142.879287 C234.315107,142.879287 234.724483,143.004864 234.985452,143.256401 C235.247049,143.506689 235.377219,143.831669 235.377219,144.230344 C235.377219,144.823079 235.100529,145.2301 234.545892,145.452655 L235.353952,147.489752 L235.353952,147.489752 Z M232.590826,144.929193 L233.62464,144.929193 C233.923339,144.929193 234.146578,144.866801 234.293727,144.740047 C234.439618,144.614521 234.512563,144.440367 234.512563,144.220026 C234.512563,144.017373 234.440875,143.853533 234.296871,143.728987 C234.152866,143.603465 233.951008,143.541074 233.691926,143.541074 L232.590826,143.541074 L232.590826,144.929193 L232.590826,144.929193 Z" id="kohler"></path>
        </g>
    </g>
</svg>