<?xml version="1.0" encoding="UTF-8" standalone="no"?>
<svg viewBox="0 0 250 250" version="1.1" xmlns="http://www.w3.org/2000/svg" xmlns:xlink="http://www.w3.org/1999/xlink">
    <defs></defs>
    <g id="Page-1" stroke="none" stroke-width="1" fill="none" fill-rule="evenodd">
        <g id="Artboard-1" fill="#D96046">
            <path d="M125.668135,52.5402112 C104.243976,52.5407613 86.8119891,69.9738487 86.8119891,91.4062591 C86.8119891,112.837569 104.243976,130.273957 125.667585,130.273957 C147.098345,130.273957 164.534733,112.837569 164.534733,91.405709 C164.534733,69.9743988 147.098895,52.5402112 125.668135,52.5402112 Z M147.384404,104.125426 L138.829593,104.125977 L138.829593,112.863975 C134.996405,115.22341 130.489877,116.588241 125.667585,116.588241 C111.788229,116.588241 100.498806,105.292217 100.498806,91.4062591 C100.498806,77.5214018 111.788229,66.2259274 125.667585,66.2259274 C139.552442,66.2259274 150.847917,77.5214018 150.847917,91.405709 C150.847917,96.0442635 149.582656,100.390158 147.384404,104.125426 Z M135.124031,80.8330833 L126.51916,80.8330833 L126.51916,84.7344861 L130.215921,84.7344861 L130.215921,97.592282 L127.88014,97.592282 L127.88014,101.850158 L137.192456,101.850158 L137.192456,97.592282 L135.124031,97.592282 L135.124031,80.8330833 Z M122.755286,80.8330833 L114.162517,80.8330833 L114.162517,84.7344861 L117.854877,84.7344861 L117.854877,97.592282 L115.519097,97.592282 L115.519097,101.850158 L124.825912,101.850158 L124.825912,97.592282 L122.755286,97.592282 L122.755286,80.8330833 Z" id="Shape"></path>
            <path d="M16.0685314,190.761655 L16.0685314,165.091172 L13.0005501,165.091172 L13,165.091172 L13,191.438844 C13,196.399215 16.3424878,196.985635 18.233777,196.985635 C18.8212979,196.985635 19.3637095,196.895417 19.3637095,196.895417 L19.3637095,194.1432 C19.3637095,194.1432 19.0006348,194.19051 18.593551,194.19051 C17.4218099,194.19051 16.0685314,193.741068 16.0685314,190.761655 Z M33.7546709,173.572817 C27.6165078,173.572817 22.5659185,178.038086 22.5659185,185.482768 C22.5659185,192.473607 27.6643677,197.34761 34.43076,197.34761 C39.5275589,197.34761 42.822737,194.18996 42.822737,194.18996 L41.4237991,191.843177 C41.4237991,191.843177 38.6715827,194.596494 34.5198784,194.596494 C29.8290631,194.596494 25.8616467,191.437744 25.7213678,185.617546 L43.1352013,185.617546 C43.1352013,185.617546 43.2254198,184.580583 43.2254198,184.037621 C43.2254198,178.400061 40.0248612,173.572817 33.7546709,173.572817 Z M40.1150798,183.091976 L25.8616467,183.091976 C26.5817449,178.534838 29.8763728,176.141846 33.6650025,176.141846 C37.0459982,176.141846 39.9340925,178.354401 40.1150798,183.091976 Z M135.969555,188.774646 L135.969555,164.773207 L130.285785,164.773207 L130.285785,164.774307 L130.285785,189.631172 C130.285785,196.221528 134.210843,197.030194 137.365742,197.030194 C138.316338,197.030194 139.171214,196.894317 139.171214,196.894317 L139.171214,191.890487 C139.171214,191.890487 138.76523,191.933396 138.315788,191.933396 C136.825531,191.933396 135.969555,191.305166 135.969555,188.774646 Z M177.792461,188.052897 C177.339718,189.407826 177.026704,191.527412 176.979394,191.527412 L176.889175,191.527412 C176.846817,191.527412 176.529401,189.407276 176.076108,188.052897 L171.296174,173.796163 L165.24933,173.796163 L165.24988,173.796713 L173.598398,196.809599 L180.36259,196.809599 L188.617589,173.796163 L182.573495,173.796163 L177.792461,188.052897 Z M153.473607,173.255952 L153.474157,173.255402 C146.617546,173.255402 141.786452,178.219624 141.786452,185.304532 C141.786452,191.843727 146.527327,197.34816 154.151346,197.34816 C159.881876,197.34816 163.399849,194.052982 163.399849,194.052982 L161.186744,189.948037 C161.186744,189.948037 158.259042,192.474157 154.55623,192.474157 C151.129574,192.474157 148.017034,190.40078 147.653959,186.388255 L163.532427,186.388255 C163.532427,186.388255 163.672706,184.850688 163.672706,184.176249 C163.672706,178.084296 160.104121,173.255952 153.473607,173.255952 Z M157.895967,182.457146 L147.837147,182.457146 C148.375708,179.482133 150.405075,177.681063 153.337179,177.681063 C155.866599,177.681063 157.805748,179.349556 157.895967,182.457146 Z M201.201978,173.255952 L201.200878,173.255402 C194.348118,173.255402 189.516474,178.219624 189.516474,185.304532 C189.516474,191.843727 194.257349,197.34816 201.881368,197.34816 C207.612448,197.34816 211.129871,194.052982 211.129871,194.052982 L208.918416,189.948037 C208.918416,189.948037 205.987963,192.474157 202.285151,192.474157 C198.859596,192.474157 195.744305,190.40078 195.383981,186.388255 L211.264649,186.388255 C211.264649,186.388255 211.401077,184.850688 211.401077,184.176249 C211.401077,178.084296 207.835243,173.255952 201.201978,173.255952 Z M205.625989,182.457146 L195.563318,182.457146 C196.103529,179.482133 198.135647,177.681063 201.068851,177.681063 C203.594421,177.681063 205.53302,179.349556 205.625989,182.457146 Z M229.806215,173.255952 C225.161059,173.255952 222.635489,176.098937 221.642535,178.036436 L221.553416,178.036436 C221.553416,178.036436 221.642535,177.317438 221.642535,176.457611 L221.642535,173.796163 L216.139202,173.796163 L216.139202,196.809599 L221.865881,196.809599 L221.865881,186.249626 C221.865881,185.167553 221.95775,184.127839 222.270764,183.182745 C223.130591,180.430529 225.383855,178.487529 228.455687,178.487529 C231.38779,178.487529 232.107338,180.38707 232.107338,183.183295 L232.107338,196.809599 L237.793858,196.809599 L237.793858,182.008803 C237.793858,175.9185 234.906864,173.255952 229.806215,173.255952 Z M115.43878,173.255952 L115.43988,173.255402 C108.592621,173.255402 103.772529,178.219624 103.772529,185.304532 C103.772529,191.843727 108.502403,197.34816 116.115969,197.34816 C121.847049,197.34816 125.364472,194.052982 125.364472,194.052982 L123.155218,189.948037 C123.155218,189.948037 120.224215,192.474157 116.520853,192.474157 C113.095848,192.474157 109.988258,190.40078 109.627934,186.388255 L125.500901,186.388255 C125.500901,186.388255 125.638429,184.850688 125.638429,184.176249 C125.638429,178.084296 122.069845,173.255952 115.43878,173.255952 Z M109.810572,182.457146 C110.349133,179.482133 112.37685,177.681063 115.306203,177.681063 C117.831222,177.681063 119.770921,179.349006 119.85894,182.457146 L109.810572,182.457146 Z M79.4520246,173.572267 C73.3193626,173.572267 68.2638223,178.036986 68.2638223,185.482218 C68.2638223,192.473057 73.3578705,197.34706 80.1281137,197.34706 C85.2298635,197.34706 88.5195405,194.18941 88.5195405,194.18941 L87.122253,191.843177 C87.122253,191.843177 84.3700366,194.595944 80.2183323,194.595944 C75.527517,194.595944 71.5562498,191.437194 71.4220222,185.616996 L88.8369558,185.616996 C88.8369558,185.616996 88.9282746,184.580032 88.9282746,184.037071 C88.9282746,178.399511 85.7266158,173.572267 79.4520246,173.572267 Z M71.5567999,183.091976 C72.2801987,178.534838 75.5709759,176.141846 79.3601557,176.141846 C82.743902,176.141846 85.6325464,178.354401 85.8168343,183.091976 L71.5567999,183.091976 Z M56.9859515,190.761655 C56.536509,191.933946 56.1761848,193.471512 56.1761848,193.471512 L56.0859663,193.471512 C56.0859663,193.471512 55.7261922,191.891037 55.3213089,190.761655 L49.0032588,174.111928 L45.7520898,174.111928 L45.75319,174.113029 L54.461482,196.810699 L57.7990188,196.810699 L66.464402,174.113029 L63.2594424,174.113029 L56.9859515,190.761655 Z M97.6332659,190.760554 L97.6332659,165.090622 L94.5691354,165.090622 L94.5691354,165.091172 L94.5691354,191.438294 C94.5691354,196.399215 97.9072223,196.985085 99.7996117,196.985085 C100.387133,196.985085 100.928994,196.894867 100.928994,196.894867 L100.928994,194.14265 C100.928994,194.14265 100.56977,194.18996 100.163787,194.18996 C98.989295,194.18996 97.6332659,193.739967 97.6332659,190.760554 Z" id="Shape"></path>
        </g>
    </g>
</svg>