<?xml version="1.0" encoding="UTF-8" standalone="no"?>
<svg viewBox="0 0 250 250" version="1.1" xmlns="http://www.w3.org/2000/svg" xmlns:xlink="http://www.w3.org/1999/xlink">
    <defs></defs>
    <g id="Page-1" stroke="none" stroke-width="1" fill="none" fill-rule="evenodd">
        <g id="Artboard-1" fill="#B4121B">
            <path d="M13.2696872,123.165818 C12.0868994,129.417696 14.7904144,134.993696 21.4647173,134.993696 C22.4785354,134.993696 23.4923536,134.909211 24.5061717,134.655757 C24.6751414,137.781696 26.2803535,138.879999 29.4062928,138.879999 L32.2787775,138.711029 L33.2925957,133.388484 C32.6167169,133.557454 32.025323,133.641939 31.3494442,133.641939 C30.5045958,133.641939 29.3218079,133.472969 29.3218079,132.459151 C32.7856866,130.515999 34.7288381,126.545212 35.4047168,123.081333 C36.7564744,116.23806 33.8839896,111 26.7027777,111 C23.3233839,111 20.4508991,111.929333 17.6628992,114.548364 C15.2973235,116.998424 13.8610811,120.124363 13.2696872,123.165818 L13.2696872,123.165818 Z M23.1544142,129.755636 C19.5215658,129.755636 20.4508991,125.615878 20.9578082,122.996848 C21.4647173,120.462303 22.140596,116.322545 25.6044747,116.322545 C27.2941716,116.322545 27.9700504,117.336363 28.0545352,118.941576 C28.1390201,120.293333 27.8855656,122.236485 27.5476262,123.588242 C27.2096868,126.038303 26.4493232,129.755636 23.1544142,129.755636 L23.1544142,129.755636 Z M45.204959,134.655757 L45.711868,131.867757 L45.6273832,131.867757 C44.5290802,134.064363 41.9945348,134.993696 39.7979288,134.993696 C38.3616864,134.993696 37.0944138,134.655757 36.1650805,133.641939 C35.1512623,132.459151 35.320232,130.938424 35.6581714,129.248727 L37.9392622,117.336363 L44.613565,117.336363 L42.5859287,127.812484 C42.3324742,128.910787 42.0790197,130.093575 43.5997469,130.093575 C44.2756257,130.093575 44.9515044,129.755636 45.3739287,129.079757 C45.7963529,128.488363 45.9653226,127.896969 46.0498074,127.22109 L47.9929589,117.251879 L54.6672617,117.251879 L51.2878679,134.486787 L45.204959,134.486787 L45.204959,134.655757 Z M63.7071402,115.646667 L57.0328374,115.646667 L57.9621707,111.084485 L64.6364735,111.084485 L63.7071402,115.646667 L63.7071402,115.646667 Z M60.0742919,134.655757 L53.399989,134.655757 L56.7793829,117.420848 L63.4536857,117.420848 L60.0742919,134.655757 L60.0742919,134.655757 Z M79.759261,128.150424 C78.3230186,132.628121 74.6056854,134.993696 70.2124734,134.993696 C67.677928,134.993696 65.8192614,134.402302 64.2985342,132.628121 C62.8622918,130.853939 62.5243524,128.488363 63.0312615,126.038303 C64.0450796,120.800242 68.3538068,116.998424 73.6763521,116.998424 C77.9005943,116.998424 80.857564,119.532969 80.5196246,123.841697 L74.5212005,124.348606 L74.5212005,124.179636 C74.5212005,122.996848 74.5212005,121.645091 73.0004733,121.645091 C70.8883521,121.645091 70.2969582,124.433091 70.0435037,125.953818 C69.7055643,127.55903 69.2831401,130.17806 71.4797461,130.17806 C72.9159884,130.17806 73.7608369,128.826302 74.1832611,127.643515 L79.759261,128.150424 Z M94.8820484,123.334788 L98.5148968,134.655757 L91.5026545,134.655757 L89.6439879,127.727999 L87.5318668,129.924605 L86.6025335,134.655757 L79.9282307,134.655757 L84.4059275,111.422424 L91.0802303,111.422424 L88.6301698,124.010666 L90.4888364,122.067515 L95.4734423,117.420848 L101.302897,117.420848 L94.8820484,123.334788 Z M110.680715,128.488363 C110.089321,130.00909 109.159987,130.600484 107.63926,130.600484 C105.611624,130.600484 105.1892,129.248727 105.696109,127.39006 L117.270533,127.39006 L117.439502,126.460727 C118.537805,120.800242 115.749805,117.082909 110.004836,117.082909 C107.554775,117.082909 104.766775,117.927757 102.654654,119.786424 C100.711503,121.476121 99.2752604,123.926181 98.8528361,126.291757 C98.3459271,128.741818 98.8528361,131.107393 100.458048,132.79709 C102.06326,134.486787 104.428836,135.078181 106.963381,135.078181 C111.018654,135.078181 115.158411,133.13503 117.017078,128.910787 L110.680715,128.488363 Z M106.287503,123.926181 C106.540957,122.320969 107.47029,120.969212 109.244472,120.969212 C111.103139,120.969212 111.441078,122.236485 111.103139,123.926181 L106.287503,123.926181 L106.287503,123.926181 Z M127.070775,117.420848 L126.563866,119.786424 L126.64835,119.786424 C127.831138,117.843273 130.027744,116.998424 132.139865,116.998424 C133.745078,116.998424 135.519259,117.420848 136.279623,118.772606 C137.124471,120.208848 136.702047,122.152 136.364108,123.926181 L134.336471,134.655757 L127.662169,134.655757 L129.689805,124.179636 C129.858775,123.165818 130.196714,121.645091 128.760472,121.645091 C126.901805,121.645091 126.394896,123.250303 126.141441,124.60206 L124.19829,134.571272 L117.439502,134.571272 L120.818896,117.336363 L127.070775,117.336363 L127.070775,117.420848 Z M156.80944,134.740242 L140.503865,134.740242 L145.066047,111.422424 L152.247259,111.422424 L148.78338,129.079757 L157.992228,129.079757 L156.80944,134.740242 Z M170.073561,117.082909 C164.666531,117.082909 159.850895,120.715757 158.752592,126.207272 C157.738774,131.445333 161.287137,135.078181 166.525198,135.078181 C171.847743,135.078181 176.747864,131.445333 177.761682,126.207272 C178.94447,120.715757 175.480591,117.082909 170.073561,117.082909 Z M169.228713,121.307151 C171.509804,121.307151 171.002895,124.348606 170.664955,125.953818 C169.735622,130.600484 168.552834,130.938424 167.370046,130.938424 C166.102774,130.938424 165.088955,130.600484 166.018289,125.953818 C166.356228,124.348606 166.947622,121.307151 169.228713,121.307151 L169.228713,121.307151 Z M195.250045,134.740242 C194.996591,133.472969 195.165561,132.205696 195.419015,130.938424 L196.601803,124.855515 C197.108712,122.405454 197.784591,120.124363 195.841439,118.519151 C194.405197,117.336363 191.786167,116.998424 189.75853,116.998424 C185.872227,116.998424 181.5635,118.096727 179.704834,122.405454 L185.787743,122.996848 C186.294652,121.560606 187.47744,121.053697 188.829197,121.053697 C190.434409,121.053697 190.772349,121.645091 190.434409,123.250303 L190.434409,123.419272 C188.153318,123.588242 185.703258,123.841697 183.422167,124.517575 C180.887622,125.277939 178.353076,127.052121 177.846167,129.840121 C177.170288,133.303999 179.620349,135.078181 182.915258,135.078181 C185.280834,135.078181 187.392955,134.317817 189.167136,132.290181 C188.998167,133.13503 188.913682,133.895393 188.913682,134.740242 L195.250045,134.740242 L195.250045,134.740242 Z M189.674046,126.967636 C189.336106,128.910787 188.829197,131.022908 186.294652,131.022908 C185.280834,131.022908 184.604955,130.515999 184.858409,129.417696 C185.280834,127.305575 188.068833,126.798666 189.75853,126.629696 L189.674046,126.967636 L189.674046,126.967636 Z M206.739984,117.505333 L206.233075,119.955394 L206.31756,119.955394 C207.500348,118.012242 209.696954,117.167394 211.72459,117.167394 C213.329802,117.167394 215.103984,117.674303 215.864348,118.941576 C216.709196,120.377818 216.286772,122.320969 215.948833,124.179636 L213.836711,134.824727 L207.077924,134.824727 L209.10556,124.264121 C209.27453,123.250303 209.612469,121.729575 208.176227,121.729575 C206.31756,121.729575 205.810651,123.334788 205.557197,124.77103 L203.614045,134.824727 L196.855257,134.824727 L200.234651,117.505333 L206.739984,117.505333 L206.739984,117.505333 Z M221.102408,129.164242 C221.186893,130.853939 222.961075,131.022908 224.397317,131.022908 C225.073196,131.022908 227.016347,130.938424 227.185317,129.924605 C227.354287,129.079757 225.073196,128.910787 224.481802,128.826302 C220.933439,128.319393 216.793681,127.643515 217.63853,122.996848 C218.060954,121.053697 219.412711,119.448485 221.186893,118.434666 C223.04556,117.420848 225.073196,117.082909 227.016347,117.082909 C230.311256,117.082909 233.437196,118.350182 233.944105,121.560606 L228.62156,122.574424 C228.368105,121.391636 227.100832,121.053697 225.918044,121.053697 C225.411135,121.053697 223.721438,121.222666 223.552469,121.98303 C223.467984,122.489939 223.974893,122.743394 224.397317,122.827878 C225.073196,122.996848 226.424954,123.165818 227.269802,123.250303 C228.790529,123.419272 230.480226,123.672727 231.747499,124.517575 C233.183741,125.531394 233.69065,127.052121 233.352711,128.910787 C232.423378,133.726424 227.100832,135.078181 223.214529,135.078181 C219.328226,135.078181 216.033317,133.810908 215.526408,129.840121 L221.102408,129.164242 Z M236.30968,117.505333 C236.563135,117.505333 236.901074,117.589818 236.901074,117.251879 C236.901074,116.998424 236.732105,116.998424 236.47865,116.998424 L235.971741,116.998424 L235.971741,117.505333 L236.30968,117.505333 Z M237.154529,118.519151 L236.81659,118.519151 L236.30968,117.674303 L235.971741,117.674303 L235.971741,118.519151 L235.718287,118.519151 L235.718287,116.660485 L236.563135,116.660485 C236.732105,116.660485 236.901074,116.660485 236.985559,116.74497 C237.154529,116.829454 237.154529,116.998424 237.154529,117.167394 C237.154529,117.505333 236.901074,117.674303 236.563135,117.674303 L237.154529,118.519151 L237.154529,118.519151 Z M234.957923,117.674303 C234.957923,118.434666 235.549317,119.02606 236.30968,119.02606 C237.070044,119.02606 237.661438,118.434666 237.661438,117.674303 C237.661438,116.913939 237.070044,116.40703 236.30968,116.40703 C235.549317,116.322545 234.957923,116.913939 234.957923,117.674303 L234.957923,117.674303 Z M234.619984,117.674303 C234.619984,116.74497 235.380347,116.069091 236.30968,116.069091 C237.239014,116.069091 237.999377,116.829454 237.999377,117.674303 C237.999377,118.603636 237.239014,119.364 236.30968,119.364 C235.380347,119.279515 234.619984,118.519151 234.619984,117.674303 L234.619984,117.674303 Z" id="QL"></path>
        </g>
    </g>
</svg>