<?xml version="1.0" encoding="UTF-8" standalone="no"?>
<svg viewBox="0 0 250 250" version="1.1" xmlns="http://www.w3.org/2000/svg" xmlns:xlink="http://www.w3.org/1999/xlink">
    <defs></defs>
    <g id="Page-1" stroke="none" stroke-width="1" fill="none" fill-rule="evenodd">
        <g id="Artboard-1" fill="#FF2600">
            <path d="M101.62574,84 L158.669379,84 L158.669379,105.544379 L114.111686,105.544379 L114.111686,116.071746 L158.669379,116.071746 L158.669379,134.923077 L114.111686,134.923077 L114.111686,145.205621 L158.669379,145.205621 L158.669379,166.75 L101.62574,166.75 L88.8949704,166.75 L88.8949704,84 L101.62574,84 L101.62574,84 Z M61.4748521,105.299556 L85.2226331,105.299556 L85.2226331,84 L13,84 L13,105.299556 L36.7477811,105.299556 L36.7477811,166.75 L61.4748521,166.75 L61.4748521,105.299556 L61.4748521,105.299556 Z M162.586538,84 L200.289201,84 C207.621088,84 213.611345,85.0070019 218.161243,86.9378698 C222.741267,89.03507 226.51429,91.9255385 229.423077,95.7514793 C232.476688,99.4595178 234.638025,103.841841 236.033284,108.727071 C237.321104,113.837417 237.991864,119.133502 237.991864,124.640533 C237.991864,133.492819 236.99504,140.290082 235.053994,145.205621 C233.007687,149.949986 230.240803,153.996642 226.73003,157.201923 C223.160455,160.523604 219.359484,162.696117 215.223373,163.81213 C209.745117,165.269605 204.714419,166.015533 200.289201,166.015533 L162.586538,166.015533 L162.586538,84 Z M187.803254,102.606509 L187.803254,147.409024 L193.923817,147.409024 C199.335105,147.409024 203.110478,146.821731 205.430473,145.695266 C207.596137,144.472523 209.352993,142.421659 210.571746,139.574704 C211.894867,136.567285 212.530325,131.822331 212.530325,125.375 C212.530325,116.571128 211.109888,110.623621 208.368343,107.502959 C205.428054,104.209912 200.718182,102.606509 194.168639,102.606509 L187.803254,102.606509 Z" id="ted"></path>
        </g>
    </g>
</svg>