<svg xmlns="http://www.w3.org/2000/svg" width="171.363" height="46.948"><path d="M22.682 18.29c-3.601-2.448-7.201-3.312-10.801-3.312-4.392 0-7.417 2.376-7.417 5.473 0 7.993 21.026 3.312 21.026 16.057 0 5.977-5.544 10.441-13.249 10.441-4.32 0-8.785-.864-12.241-3.024v-4.105l.36-.36c3.96 2.592 7.921 3.457 11.881 3.457 5.616 0 8.856-2.592 8.856-6.409.001-8.353-21.097-3.817-21.097-16.058 0-5.401 5.041-9.505 11.881-9.505 4.321 0 8.281 1.08 11.161 2.88v4.104l-.36.361z"/><path d="M39.889 3.384l.36.432v8.209h14.473l.36.36v3.457l-.36.36h-14.472v17.498c0 6.84 3.24 9.217 6.913 9.217 2.016 0 4.896-.432 7.561-2.304l.36.36v3.816c-2.088 1.296-5.329 2.16-7.92 2.16-6.841 0-11.161-4.32-11.161-12.889v-17.858h-5.763l-.36-.36v-3.457l.36-.36h5.761v-8.28l.36-.36h3.528z"/><path d="M64.225 13.321c2.16-1.08 5.473-2.376 9.433-2.376 8.641 0 13.465 4.68 13.465 14.401v20.162l-.36.36h-3.457l-.36-.36v-2.376c-2.88 2.16-7.201 3.816-11.089 3.816-6.336 0-11.737-3.096-11.737-9.361 0-9.505 10.441-12.241 22.826-12.961 0-6.913-3.672-9.649-9.505-9.649-3.96 0-7.201 1.296-10.729 3.384l-.36-.36 1.873-4.68zm18.721 15.05c-10.585.504-18.362 2.88-18.362 8.857 0 3.888 3.241 5.688 7.633 5.688 3.816 0 7.849-1.656 10.729-3.816v-10.729z"/><path d="M103.681 3.384l.36.432v8.209h14.473l.36.36v3.457l-.36.36h-14.473v17.498c0 6.84 3.24 9.217 6.913 9.217 2.016 0 4.896-.432 7.561-2.304l.36.36v3.816c-2.088 1.296-5.329 2.16-7.92 2.16-6.841 0-11.161-4.32-11.161-12.889v-17.858h-5.761l-.36-.36v-3.457l.36-.36h5.761v-8.28l.36-.36h3.527z"/><path d="M129.313 0l2.952 3.024v.72l-2.952 2.952h-.72l-3.024-2.952v-.72l3.024-3.024h.72zm1.368 12.025l.36.36v33.123l-.36.36h-3.528l-.36-.36v-33.123l.36-.36h3.528z"/><path d="M171.003 19.082c-3.816-3.024-7.201-4.104-11.161-4.104-8.137 0-13.897 6.121-13.897 13.969s5.76 13.969 13.897 13.969c3.96 0 7.345-1.08 11.161-4.104l.36.36v4.177c-2.88 2.16-6.84 3.6-11.521 3.6-10.945 0-18.361-8.064-18.361-18.001s7.417-18.001 18.361-18.001c4.681 0 8.641 1.44 11.521 3.6v4.176l-.36.359z"/></svg>