<svg width="162" height="104" xmlns="http://www.w3.org/2000/svg"><title>Slice 1</title><g fill="none"><path d="M12.604 4.108l120.578-4.1c6.921-.235 15.123 4.536 18.325 10.665l9.353 17.903c2.27 4.346 1.044 10.401-2.743 13.529l-71.344 58.921c-5.506 4.547-13.679 3.795-18.255-1.679l-64.192-76.795c-8.153-9.754-4.441-18.011 8.278-18.444zm0 0" fill="#CD3436"/><path d="M151.556 10.735l9.31 17.891c2.26 4.343 1.039 10.394-2.731 13.52l-71.013 58.883c-2.654 2.201-5.931 3.159-9.122 2.941l67.361-99.97c2.635 1.824 4.855 4.16 6.195 6.735zm0 0" fill="#900"/></g></svg>