<?xml version="1.0" encoding="UTF-8" standalone="no"?>
<svg width="162px" height="104px" viewBox="0 0 162 104" version="1.1" xmlns="http://www.w3.org/2000/svg" xmlns:xlink="http://www.w3.org/1999/xlink" xmlns:sketch="http://www.bohemiancoding.com/sketch/ns">
    <title>Slice 1</title>
    <description>Created with Sketch (http://www.bohemiancoding.com/sketch)</description>
    <defs></defs>
    <g id="Page 1" stroke="none" stroke-width="1" fill="none" fill-rule="evenodd">
        <path d="M12.6037366,4.10812764 L133.181637,0.00834280605 C140.10221,-0.22696446 148.304728,4.54411118 151.506947,10.6733989 L160.860183,28.5761964 C163.130494,32.9217412 161.903997,38.9774169 158.116798,42.1051724 L86.7726637,101.026547 C81.2667977,105.573708 73.0931666,104.821209 68.517433,99.3470921 L4.32546433,22.5519079 C-3.8273937,12.7983476 -0.115708518,4.54060316 12.6037366,4.10812764 Z M12.6037366,4.10812764" id="Path 1 copy 2" fill="#CD3436"></path>
        <path d="M151.555645,10.7348536 L160.865473,28.6258621 C163.125247,32.9685454 161.904443,39.0202334 158.13482,42.1459293 L87.1217913,101.028505 C84.4678289,103.229117 81.1911275,104.187675 78,103.969785 L145.361127,4 C147.995935,5.82447394 150.215635,8.15971223 151.555645,10.7348536 Z M151.555645,10.7348536" id="Path 1 copy 3" fill="#990000"></path>
    </g>
</svg>