<svg viewBox="0 0 623 96" version="1.1" xmlns="http://www.w3.org/2000/svg" xmlns:xlink="http://www.w3.org/1999/xlink">
    <desc>Created with Sketch.</desc>
    <defs></defs>
    <g stroke="none" stroke-width="1" fill="none" fill-rule="evenodd">
        <g id="vinspee-logo" fill="currentColor">
            <path d="M223,43 L251,7 L242,0 L223,25 L204,0 L195,7 L223,43 Z M257,2 L269,2 L269,40 L257,40 L257,2 Z M279,41 L291,41 L291,22 L325,43 L325,2 L313,2 L313,21 L279,0 L279,41 Z M375,28 C371.265,30.213 366.36,31.494 361,31 C352.924,31.494 345.772,27.753 346,22 C345.772,15.247 352.924,11.506 361,12 C366.36,11.506 371.265,12.787 375,15 L380,6 C375.096,2.691 368.71,1 361,1 C344.494,1 333,9.815 333,22 C333,33.185 344.494,42 361,42 C368.71,42 375.096,40.308 380,37 L375,28 Z M429,30 L399,30 L399,26 L423,26 L423,16 L399,16 L399,12 L429,12 L429,2 L387,2 L387,40 L429,40 L429,30 Z M197,90 C202.149,92.233 209.671,95 221,95 C234.509,95 244,90.593 244,82 C244,71.886 232.288,69.785 217,69 C212.902,68.658 210.529,68.299 211,67 C210.529,64.865 215.224,64.249 220,64 C226.786,64.249 232.994,65.582 237,67 L241,58 C236.023,55.692 228.905,54 221,54 C208.914,54 198.413,57.639 198,67 C198.413,75.884 206.44,78.856 224,80 C228.502,80.292 231.884,80.547 232,82 C231.884,84.135 226.533,84.751 222,85 C213.104,84.751 206.339,82.752 201,80 L197,90 Z M272,74 C268.778,74 266.191,73.898 264,74 L264,65 C266.191,65.101 268.778,65 272,65 C282.665,65 286,67.288 286,69 C286,71.661 282.665,74 272,74 Z M273,83 C291.184,83.287 299,77.299 299,69 C299,60.894 292.193,54 271,54 C265.112,54 257.699,54.302 252,55 L252,93 L264,93 L264,83 C266.725,83.187 269.65,83.287 273,83 Z M348,84 L318,84 L318,80 L342,80 L342,70 L318,70 L318,66 L348,66 L348,56 L306,56 L306,94 L348,94 L348,84 Z M399,84 L369,84 L369,80 L393,80 L393,70 L369,70 L369,66 L399,66 L399,56 L357,56 L357,94 L399,94 L399,84 Z M408,94 L449,94 L449,84 L420,84 L420,56 L408,56 L408,94 Z M455,93 L467,93 L467,75 L482,85 L497,75 L497,93 L509,93 L509,53 L482,71 L455,53 L455,93 Z M562,96 L571,89 L543,53 L515,89 L524,96 L530,89 L556,89 L562,96 Z M549,78 L536,78 L543,70 L549,78 Z M577,94 L589,94 L589,75 L623,96 L623,55 L611,55 L611,74 L577,53 L577,94 Z"></path>
            <g fill-opacity="0.75">
                <polygon points="0 0 0 95 126 95"></polygon>
                <polygon points="126 0 126 95 0 95"></polygon>
            </g>
        </g>
    </g>
</svg>
