<svg viewBox="0 0 687 152" xmlns="http://www.w3.org/2000/svg" fill-rule="evenodd" clip-rule="evenodd" stroke-linejoin="round" stroke-miterlimit="1.414"><g fill-rule="nonzero"><path fill="currentColor" d="M255 71l28-36-9-7-19 25-19-25-9 7 28 36zm34-41h12v38h-12V30zm22 39h12V50l34 21V30h-12v19l-34-21v41zm96-13c-3.735 2.213-8.64 3.494-14 3-8.076.494-15.228-3.247-15-9-.228-6.753 6.924-10.494 15-10 5.36-.494 10.265.787 14 3l5-9c-4.904-3.309-11.29-5-19-5-16.506 0-28 8.815-28 21 0 11.185 11.494 20 28 20 7.71 0 14.096-1.692 19-5l-5-9zm54 2h-30v-4h24V44h-24v-4h30V30h-42v38h42V58zm-232 60c5.149 2.233 12.671 5 24 5 13.509 0 23-4.407 23-13 0-10.114-11.712-12.215-27-13-4.098-.342-6.471-.701-6-2-.471-2.135 4.224-2.751 9-3 6.786.249 12.994 1.582 17 3l4-9c-4.977-2.308-12.095-4-20-4-12.086 0-22.587 3.639-23 13 .413 8.884 8.44 11.856 26 13 4.502.292 7.884.547 8 2-.116 2.135-5.467 2.751-10 3-8.896-.249-15.661-2.248-21-5l-4 10zm75-16c-3.222 0-5.809-.102-8 0v-9c2.191.101 4.778 0 8 0 10.665 0 14 2.288 14 4 0 2.661-3.335 5-14 5zm1 9c18.184.287 26-5.701 26-14 0-8.106-6.807-15-28-15-5.888 0-13.301.302-19 1v38h12v-10c2.725.187 5.65.287 9 0zm75 1h-30v-4h24V98h-24v-4h30V84h-42v38h42v-10zm51 0h-30v-4h24V98h-24v-4h30V84h-42v38h42v-10zm9 10h41v-10h-29V84h-12v38zm47-1h12v-18l15 10 15-10v18h12V81l-27 18-27-18v40zm107 3l9-7-28-36-28 36 9 7 6-7h26l6 7zm-13-18h-13l7-8 6 8zm28 16h12v-19l34 21V83h-12v19l-34-21v41z"/><g fill-opacity=".749"><path fill="currentColor" d="M32 28v95h126L32 28z"/><path fill="currentColor" d="M158 28v95H32l126-95z"/></g></g></svg>
