<svg viewBox="0 0 147 147" xmlns="http://www.w3.org/2000/svg" fill-rule="evenodd" clip-rule="evenodd" stroke-linejoin="round" stroke-miterlimit="1.414"><path d="M42.744 87.572H38.91v-1.728c-1.571 1.468-3.262 2.202-5.071 2.202-2.284 0-4.173-.824-5.665-2.473-1.482-1.683-2.222-3.784-2.222-6.304 0-2.473.74-4.535 2.222-6.184 1.481-1.649 3.335-2.474 5.563-2.474 1.922 0 3.647.791 5.173 2.372v-1.914h3.834v16.503zm62.983 0h-3.833v-1.728c-1.572 1.468-3.263 2.202-5.071 2.202-2.285 0-4.173-.824-5.666-2.473-1.481-1.683-2.221-3.784-2.221-6.304 0-2.473.74-4.535 2.221-6.184s3.336-2.474 5.564-2.474c1.922 0 3.646.791 5.173 2.372v-1.914h3.833v16.503zm16.089-7.354c.102 1.356.543 2.435 1.323 3.237.78.79 1.781 1.186 3.002 1.186.95 0 1.736-.226 2.358-.678.611-.452 1.306-1.288 2.086-2.508l3.223 1.796a12.933 12.933 0 0 1-1.577 2.178 8.377 8.377 0 0 1-1.782 1.49 7.113 7.113 0 0 1-2.052.856 9.985 9.985 0 0 1-2.391.271c-2.466 0-4.444-.79-5.937-2.372-1.492-1.592-2.238-3.705-2.238-6.337 0-2.609.723-4.721 2.171-6.337 1.458-1.592 3.392-2.389 5.8-2.389 2.431 0 4.354.774 5.767 2.321 1.402 1.537 2.103 3.666 2.103 6.388l-.017.898h-11.839zm-107.17 7.354H8.658V61.411h3.935c1.753 0 3.149.135 4.19.406 1.051.272 1.939.729 2.662 1.373.735.667 1.318 1.497 1.748 2.49a7.535 7.535 0 0 1 .661 3.05c0 1.876-.718 3.463-2.154 4.762 1.391.474 2.488 1.304 3.29 2.49.815 1.175 1.222 2.542 1.222 4.101 0 2.044-.724 3.772-2.171 5.185-.871.869-1.849 1.474-2.935 1.812-1.187.328-2.674.492-4.46.492zm50.568 0h-3.817V58.954h3.817v17.452l5.376-5.337h5.123l-7.175 6.93 7.7 9.573h-4.952l-5.462-6.964-.61.61v6.354zm48.396-16.503h2.969v3.558h-2.969v12.945h-3.816V74.627h-1.628v-3.558h1.628V65.02h3.816v6.049zM48.788 87.572h-3.833V71.069h3.833v1.525c1.335-1.322 2.838-1.983 4.512-1.983 1.922 0 3.42.604 4.495 1.813.927 1.028 1.391 2.706 1.391 5.033v10.115h-3.834v-9.206c0-1.624-.226-2.747-.678-3.367-.441-.632-1.244-.948-2.409-.948-1.266 0-2.165.417-2.696 1.252-.521.824-.781 2.262-.781 4.315v7.954zm32.857 0h-3.816V71.069h3.816v1.474c.702-.734 1.323-1.237 1.866-1.508.554-.282 1.21-.424 1.968-.424 1.006 0 2.058.328 3.154.983l-1.747 3.49c-.723-.519-1.43-.779-2.12-.779-2.08 0-3.121 1.57-3.121 4.71v8.557zm-51.792-8.303c0 1.582.424 2.87 1.272 3.864.871 1.005 1.968 1.508 3.291 1.508 1.413 0 2.555-.486 3.426-1.458.87-1.005 1.306-2.281 1.306-3.829 0-1.547-.436-2.824-1.306-3.829-.871-.983-2.002-1.474-3.392-1.474-1.312 0-2.409.497-3.291 1.491-.871 1.005-1.306 2.248-1.306 3.727zm62.984 0c0 1.582.424 2.87 1.272 3.864.87 1.005 1.967 1.508 3.29 1.508 1.413 0 2.555-.486 3.426-1.458.871-1.005 1.306-2.281 1.306-3.829 0-1.547-.435-2.824-1.306-3.829-.871-.983-2.001-1.474-3.392-1.474-1.312 0-2.409.497-3.291 1.491-.87 1.005-1.305 2.248-1.305 3.727zm-78.225-3.32H12.61v7.912h2.443c1.786 0 3.098-.35 3.935-1.05.882-.757 1.323-1.717 1.323-2.881 0-1.129-.424-2.078-1.272-2.846-.826-.757-2.302-1.135-4.427-1.135zm115.125 1.152c-.531-2.034-1.815-3.05-3.85-3.05-.464 0-.899.071-1.306.211a3.753 3.753 0 0 0-1.111.611 3.835 3.835 0 0 0-.856.957 4.418 4.418 0 0 0-.543 1.271h7.666zm8.605-3.733h-.34l-.212-1.325-.651 1.426-.632-1.428-.236 1.327h-.343l.462-2.36.755 1.706.781-1.706.416 2.36zm-2.561-1.884h-.503v1.884h-.332v-1.884h-.505v-.311h1.34v.311zm-121.78-6.447H12.61v7.607h1.238c1.47 0 2.547-.324 3.232-.974.683-.649 1.026-1.606 1.026-2.872 0-1.231-.351-2.166-1.052-2.804-.701-.638-1.719-.957-3.053-.957z" fill="#3b75d8"/></svg>